<mxfile host="app.diagrams.net" modified="2022-10-14T13:54:36.867Z" agent="5.0 (Windows NT 10.0; Win64; x64) AppleWebKit/537.36 (KHTML, like Gecko) Chrome/106.0.0.0 Safari/537.36" etag="PSr1-qUOF9F8lrvnv-pa" version="20.0.4" type="github">
  <diagram id="FJ1M3DNri8noiy6HGELu" name="第 1 页">
    <mxGraphModel dx="1247" dy="706" grid="1" gridSize="10" guides="1" tooltips="1" connect="1" arrows="1" fold="1" page="1" pageScale="1" pageWidth="827" pageHeight="1169" math="0" shadow="0">
      <root>
        <mxCell id="0" />
        <mxCell id="1" parent="0" />
        <mxCell id="bZkYJHnAxm7wtyXOv3yM-1" value="" style="shape=image;verticalLabelPosition=bottom;labelBackgroundColor=default;verticalAlign=top;aspect=fixed;imageAspect=0;image=data:image/png,iVBORw0KGgoAAAANSUhEUgAAAgUAAACTCAMAAAAp4ppIAAAAAXNSR0IArs4c6QAAAARnQU1BAACxjwv8YQUAAAMAUExURf////f39yEhIaWtrWtzc+/m5t7m5tbW3pScnNbWzhAZEAAAAFpSWkpSUsXFzhAZUr29tb2c5pxjUrUQUpxjGbUQGZTO5qWcnJSMlLW1tYSMjBmtYwje5gic5lrOpVqMpRnOYxmMY2trY3Nze0JCSiEpKXuEe+aM5kIZUjoZEOY65mtjOuaMreY6rYyc7+Zj5uYQ5mtjEOZjreYQrYycxXucWubWWuZaWubWEOZaEBlKUr29xUJCQjEpMTo6MQgQEL1jUlrv5rUxUlqt5rWcc71jGbUxGZTv5lrO5lqM5rWcUrXvY0pa70rvY71jjEpapbXeMUreMUoZ70oZpbWcMUqcMUqtY+aUe+YZe+aUMeYZMRBrGUrOY0qMY1pjWua17+a1pebWe+Zae+bWMeZaMRlrUuberea1xb3v5oRr74Q6nIQp74RrxYQQnIQpxYQQUoQQGZTOtYTOcxlrzhlrhITvEBnvEBkpzhkphIStEBmtEIRK74Q6e4QI74RKxYQQe4QIxWMQUmMQGZTOlITOUhlKzhlKhITOEBnOEBkIzhkIhISMEBmMECnvpSmtpQjvpQitpSnOpSmMpQjOpQiMpbVr77U6nLUp70JjKXNjnLVrxbUQnLUpxbXOc0przpxjnEprhLXvEErvEEopzkophLWtEEqtEOalWuYpWualEOYpEBBKKbVK77U6e7UI70JjCLVKxbUQe7UIxbXOUkpKzpxje0pKhLXOEErOEEoIzkoIhLWMEEqMEOaEWuYIWuaEEOYIEBBKCL3mtYQxUinv5imt5oQxGZTvtVrvtVqttYTvcxlr7xlrpYTvMRnvMRkp7xkppYStMRmtMRnvc73mlGMxUinO5imM5mMxGZTvlFrvlFqtlITvUhlK7xlKpYTOMRnOMRkI7xkIpYSMMRmMMRnvUr2UnEJrUr3F5nule0JCEL2UvRAQMeb3Uub3Geb3jEIQMeb3vb2tnO/ezu/W79735iEIEHNac6WtlPfm9/f35iEpCOb3/3tzc//3/wAAABHpa2wAAAEAdFJOU////////////////////////////////////////////////////////////////////////////////////////////////////////////////////////////////////////////////////////////////////////////////////////////////////////////////////////////////////////////////////////////////////////////////////////////////////////////////////////////////////////////////////wBT9wclAAAACXBIWXMAABcRAAAXEQHKJvM/AAAoAElEQVR4Xu1923KjPNO1CyKDAVOcBXMIsW9iMHPyX4fv/yAnX2rKsYmd+tfqlgA7zm7ied7MFCsxW21arVarWwgxGTFixIgRI0aMGDFixIgRI0aMGDFixIgRI0aMGDFixIgRI0aMGDFixIgRI0aMGDFixIgRI0aMGDFixIgRI0aMGDFixIgRI0aMGDFixIgRI0aMGDFixIgRI0aMGDHiL4Q5cKPH3f4DuBz0Ewn8UbBULUt2FXymVB8J+124dIJL7HqbUN61IYyZHOzx9dgOmACJHlwm+nMZvYf9YdJyp2c9Xo1tbzCSzZJb97sSXCag7rtBSWPxBWxC2Oy7C6/AFsSkRZGdMkpS+G3YtCBZQb7ygz4lybB9HjDQuMAv0L5FweVIh6HEqDRTuomDJCYq84N4jS6LL7DnD0GL+IwDY0yQov09H9rTNjTgthy00lqUNUEZrUPz7LQA0pHIrgl/DIh8oUZnm6jJg8PkWfNzvNOdDc9cX8uqDUwQzKhQhnDq6jxWLzjgg1EGoCgH4y6fMeUtIIuLRBkzVVl6jeT/GVA20PSMRp0XxSo5puAGKtU2A6A7UPBUFAUbT1ok8zJMXbFMkKWfL+BpBv2Z8cukPj7YBAfpUmTP+56zbCFWP1ieTel/lCAmyDrKijJEHI3WptkUGeJEu5gvwSxuKiZ9Rvp3AdtiViZlUXpNJleEUGGEK/uQdJWRdhIUTVMEvCKtNfCrMpTTT+C0hWlu6Dh58PycVcvatzlzh/q3mojR7F7uD8kjzI+yTlbVuglRiz002Hlghdgcv/yyrllVFLPDzH+8IUMY4XKkC7Acexn+sEuaecFm9g1BZk6ypCl/BLOqckzT2umK0lIB6Jnc4SbIG2UYL0yCdNV4TdGdfwp7adtDxj23JCxLoiTt0hNKFbgbZNT2VpOf5InLAeQnM+mxOjNaJOFLRs8esodEd819uZiqroEy8qL6B6mzgT6My3kEWVE3xeykIN8EUuBp7nk+Tmap1r4DO8PTK7jmKiuroxJNX4uUHusojteUAuA8zhsgt/AD3+RUt51Q+LV3pHpRnkrO7K8AU5S+Kh6YMrIfIqufKtyFoWMvOLQa1pWhB4V8iuwS1YYT81A193EsylFCf7xMlkMvqZqYvPEe0YO+zP5/DClcVseJMhscRkUq04n+aHhIBKWXLKTSoUvTVd14UdzYfq+TlHdwlqTjtPDPCC2h13RdO0PjlqYdzL0K/JRTF0DBC1VUU6pf4NnGPgezQrdYQ/XoBZPdNA0Eu6YUKJnnxL6CoRvzAkHhLW1L+V5g6yh+xjd9IcWfbdV7UHQebs8P4zdeV56sOvqLMIm8/KQbfg/twSYsGcqRJM0Dm+OsjkQZWIhVIDIWNPFcaoz6ypEnQBJhE1NNvQrNawBJIKggctgjCxOEN/mP2yZmj/BbgDl5QpVFevPU+C+y/w4waRJHxdTARBbCT4g8mBn8RzMsktQSfERpJxI8DbP9xJTbJXXBJ3QnOmkiQBbB4aQrdSd9NoJeywZstzaQEKSwtMXbCjRftgCmaTr71XmACiE5rT12IxT/Q5DBoghqJwUXtPtbeA6QhznLHY4YMnpYe+EnU/tPAKOlibwk9GG+dvw8KKUmzXw/DHdwAeWCXqVEzJKoZA+nMVjetPy5Fil42dTewnOQPfhhnl/2Mk0ReSH2yFjzlvqi7VhHGxhaKp0DuUP3FPh1/DPxfY5+nANG5cMuzHeLl/daf7ne6VXYilTsaa12gQrXJfIuA0zb5WEo5msPnrSHKQ1evfCdEIQJenSvqWun4FmJ+JHrflKvHkJ4OOyc+Q/eqIinTfR4qv7TEhWmRcXmRHsMYPPokVX1TZhv6F9IDGysWmBFmHDtFb94meMYAO+w0oP5tusqkJVEkLRNVjVeHHn1fDVwL2y2JkvqyncFIpiXHmbJ01n9QAou9QgviiDl1UOOLaSbpvRvkybJ5IbtWqVwOK2ihmL9zQCHqNlGSVV2zj7pBcfRB2elV98G6DC8UIviODaZLJr71WnXC+WtUmCxHzbRIcROt5yjFVYf03QVxZXEZT6SFwJg/wyLbaN1o0nrZZypLupAQRBGm6yAWDdJecxTucCxUHpCiN8u5l4dpmkV31MKJC3c0XoKvS07hAEoBYPuiHlIii/Agro7bXpcN/ksLWMPxjOLgIv8MRPsmY0W5TuhPaSVt7w1B/aVTnDZDJ+Nn0CoQXHoaSNBN0HjgYDx/jSsciB1dgEgAwCa1GWQOwybJV7CxwXp/ElaiE2eKZBzk0OaRHXXppU6CRLMY5UCETUJbK0MKP3m/pgaGgbIB9mobkF2P2BM+DjJmjl6E2o1FFQVDxpp/LPgAU4tF1JnHXZE2f0ZNLTkQNFBHjjyPbpdNqaQobhdRqU7/i4gPVBSSyfye+G9EYbOjveNDN0FPkylg160RYbLY42ADue6gDABjM5TTBEEMqIMnVaeehr7BUeiBWr0u0GqoNyunfYm4NARLXqkJDOtJCi3hXC1U/wmyl3NCHiC5ILjfZ3x2CzsaJKUSQ+nJUxkOerQ6YIuMeQeoEhnhbI3BWkVydALmCZ+tETdW/OJ2yz5+e0MA0r9DEbQafenLdJfxiW7ZIVtMgQKAyOgd+QV0IG9YNjAaXEsziHRVOnQQy8tnwfpA3qCkKb6OZQtk4aSSFh5cV3JYRVKlWoMCldQRSI4th1a4L7vRZ0yHtzkIRwC9Hu3cqbyBHS6oIdZFCtkKRl3QJuX3Jn2ztOhF8nHFakVhqoLRuUmBsM3AwoL6STF0kt2sn2MnvrGIeVA3Vn602R7LgW9LtAwSPCwq72tF3lR/x+tXeeLUByzDAdtyaBt2mbjAEUl2mIvHftkWtRbJtM0ESxAz4vun9DTI0Xpw5TvsGPEtOfjCPzELqCLsy+ip5y0CX0oCR9YyDMLpgwp4GhB38EgoYFdYCs0KGrPe7KFupd/NAe9R0yraLsalIBZCc94jYPUlNFzzn0L+F43xnIIdvmCpj9UH3hwBx5o8bmdwmd0umxW/hwWHmhhF1gpsBwDS7ObzaZMTqFGqIQJNvE6E06R7XDx0MjzVZVJCCQF6wpM80JUjU0THsCGiVSJF3tJKWnLwwL+20kCKI80RwQOVzkSDNUJTTdohRJE9A60ShjmRS6j5ge4vvG8K66CukAKrELBRKa3kqXQwC0P1D6RMCa7Q0eFAyYjDWefgmlKlyIotstvKAUw9DzWDFohhw6WMnKil4c2M3Rx0tQ7WyBq3TMjILgZ2AUcFEQrM2mgmHX/KWxBxxUI2sAhD4qkLo/H2pv7ZKkqBWiYtXVQyFQoV0nPLGAX+Ex4ZucQcKPh8iguKcntjxKuQlU2zZH1tA+b7Q2NQgRDUrOiqavqWDelGp/U1Au52w0zd+TZc4Rrg5RFQkHwc3+Sv7b4cB1Rc+FYFA0Eu1zXO+dS405rihec+w5AF69NROp5e///QDPKGxwtC5Ris6igC5vcXhDR6Y0GAulYHwGuhNaHmB2nw3Tt8BSttu4FLUuaCiz2620169iUJXFtm45GFINCKk3boJzbakKYQ2tWsVegPAcTNndZEIgJg1sG5l8uKQlVi6QpUIVFFKnHO5vHjUgBoWLa6QJFJwut6xcHeBY6qLloXDB3bKb+cY4i0kxs3WymoHr6dj0CGp3fxHRd0O9meVF6kU4ZQCOM12CBHek36S7P66h79j7x19GZdx08DnQBu2ka+y/ByOCYKNCHSKTARpqFhYhdBal06Rz4hGfWMb07gAL3SmnYAnby7h68Cg7VQxFlMqsDukGM/2kSb9Ub5QaaOmf8rqbRI8goJQusgtbZBfa0I/QS1JSYVrF6CAIz2xVkmj50c4nexPVDX47vADaKIo4rHO0n0yw1aGLWjA4q0QUMEZiDwb228PondVkTDWqBkLFDKR434opfgmMp934U34koHdREDERRrNC1alwz2e8gbZb5z0M/IqijG4lqL4nEMRb8jp+J9fJ/ScwCags7mH8/lfxf8FbRNiUmHCR13CAk0oz7LEQKnC6QSrZSeLlgDAEFaqWAHrEJwLRbz2PTZxyJB+V2N1Aw3wSHMt6qK8CaMKXTBYbMEy5mcMUOdPOHj3nTenvm9qINeqpxO0byYMBVxYCfGdSliNIs7BJuYQlwbFjPTe5pA1YXQS8zyWm9tWOKrlJwVbRPuITciGZgOIQ/evUtDmG+S58N/cIZs5Yu2BfWpi/jn+zvBoCEnIwdAjaWPILvwdwkEXg0JBfHGQxpke3MW0MziZBKnAwemXL4ypDUtb88Ie5DmCXR0u909zRxz4uNDx7A/soKNcKBHOyUAxQTLUuf7GqWxkzDJo7K/gGKVvYljaCUEmhs6yKdZWG1ueVAEfFrtXYah7y9+SnWybBckkU3dihDhjpfWL3ZSpv+5Jmn+M/u1DmFkkClBml2u0kWDMmEggrCjATwX8QRdKKSh1/LyVToJIy6Hl25BK/oOT5vB9NmQRYmOg5C24dDb6RfIkGsf/6ZEWQdjugokz2zfQ3ahWqI5yzxtPOTi0Eik3TICSiDuC4KOgaW6nDdQOXjBGGpKnZ6GRfMLPWTKN7WuzQ19nnkB/ALvWZTFlWdrFijpADCJ7OyLIJEPS+gK5EYXmaumtySJgOOogrMzdZ1zRIjrZqkk+IoWRVlPbfqDoFDnTVHcKoNrVIZPoW/lO5QIjgi6Uz6Kcfdy0AcCYBKjpoqv3EzMkUXSA74MRlT/nQPZa4NdnHts23QmsXJBPsLkAYJws1CJ9jYQpryfmWt+EN6bJoarpYPp0GkGVKgo2tENkfLh88lbhc8/VVS1/W8gv996hS8hTaAV9LA47+17XHS+kldBOApWjfOjW9dEcmTedlwsOoi8f8YUiH9fMv+ffmAauEZYs0oBLyNYAHcnCapigfQLTZ7UDSJzE+VaqLZwwPeatO8KlEiBM93P+Qqfq8A5Drv9zArmEd5Q99bKKMukAMJRx161pNeA8we5jAzUF96+iyvB5z1XAPYgTGrsqHDpBuW0OBhKbpAbracVVzQwLWluF1Kw9FnDZOw8aja5CTI/FsfCG/DnR3D+RhMVjyufHEMmdAhS+rjwOjk9FN6CL274RTNrEpyEqqlpIsgRweZGgKP7yCqsQ1WdSmmpgiQeUCBVDE8Q0xE7/AMfgHCpHUks29lZmOwy0Mp0C702c0phy9joFvbya+sQsMhadBZuJEt7XMQHOPCon7qNNE10dEAHRYWxYMU5G1NMLgbcBBDCiAXgzuxC+zsAD6s4YGcsN6b0E7+BAK0nU5Z7+WxCrpi99Dxw2AWkiQjZmVNIXS+AAxFGXPXepP6wVYyaNOsnz6ACCIdvJAtZVKspsHGnnYUs2I6+g6TaWgHMtFiGHqG3NBMJTMpENRr+6wxPlGq1jo8TBIH0AW33Tn9UTBNs7g+QGRQzMtq7omXpJX4Gjo9AWr64Tvpb4NkMP5nd66VQRdweunBzUiCV3lHz/eNVvIehmRClBYlugMcQph4JSgkQy2Obeza98uRo1OBu3T1OW6jngpgcmgC7CkiuDfMDTehd2jxyFNO3oJq0F5Gcz/DpWsWlgGnybPTIcUL7RE0TfQ69MFOQ14H0gqe01VdF7dlw8HwdyBEwJ3lLoy25ZSNTPjIqb2Oh9CY3GkvLxIRwtDhFfY31K9QqJvbTAolgRRujsIHoO8hCKQvTrwyMybIOPsMu6qWB0WkFVBeS4RTLmp+OnjHMbAktR0ECQx/TU36kLLfRLNmaIbiQVo2ZTA1ga95AL+KtceBRDF1COz6rF4vlt7QrYaX2fE6peB2ueQoimpa9KL0bF5N6feh79IFtIJ+mVmoZTp/NHcGaRugrU1L7w5uEwLLIGGLvrHkFB2JLSWSmyoKuZ0MwDxZJybI4UHAIBe2SWjbgcvxh2FJJY+SMAyLcoPWwzefbmjHOWjPzPRxTcuHipGchBjch2TaR5AS+kfZ1DBXd1Ut0w20GiUyAxTesszDvJhDRVuyZ3zbKmVqrRmMISqBb1kGFkxbQws3CQ542KlxJtjVIgQfSOmzsBZ51nAEEPJMGmAgvg3EQTfFBwdezSd2pLk1qV+U66iudnwGJyW35cdtk4Vw62SSKlS3Yw+7VtU9EHxcPJ1I/AFYjSSbNHlaws+oG9AEKVgl+YXn8H36/ZvVNATFEgv8I0xWtS5RvNCL4LbUtQwgGAiQJgfmQHqyJPaSZF43Wxkf1KRmeTLf7OCUUGIoLCIdfDqtPHoTSLebnIDwoAgcreroPslpMh/8Y3LHdygGGvB60CQ590cOiLMu8wwkVAIEvvWd6WYgoYei5KPSsvADS6gtPkJPfXmMW1YFqoahlamcpy4hLT5bvoOYXdpKYfbr49qygpFvXrxXZKlGO2Njkig8w0+P20laJfNHSqW2dnidSQmy5+ztGUY6OZ34s/dRnA1ubjYiNojA69PsmLjnIwcDvihp1i16Dc+d66I0ChfAJjjQzOVYcWpNmyc3tEMc4VeFZp+WWzuU9645q/02N20AQ1t1CRvxM2fqBzNOpZeu3yatVJsgxQ38z/RJYv9OtxRc2gwZgK17zv8e2JSpV4ResNsgb/6lOoWc6bvZetLSAa0TqcwziBYyiPt/DCnx0BRTUs0C4cwWxBaolczkJitdE8QW5og8zcChCy+gKnkNoKoLq4mTczjag4IZ8plJHkGW0n/7MwAXYQ4s43qXKfvc73WQUcPOCd3iqZbSflLcr0GwHmQpflZM2IhQZqSgzHh9rOIMpBLJXOCvUMOZQH1BTiikupU8XU4gojsGun55CBTn0mWBxnW3sZeMlTK599FCieY85eZ/AZi+Qd5s4ya5Wcn4BEmwjeawh+fPfzQV90OMF2yX0P3VnvUCnXY6gOuQtdGLLHTF/lT5+8CXhE07qg7nZIPKwSUNym033fcUrBzuLhBoIwzzsyKl2/fK9Czkkx7sVAAvs9hieHwtcEKLF0d1sqmyKUmQ0vDgMPN9/8Ff+FmGgwwH/iKj2X1ORl9MvfNesR0Y+qNhL8HS0blmFrzM32l12sCnGF58IUnvxngXXyncGV4k1T3XvAoO8Ky92KtQz/rgQxKnMJqwbpr6rm5geNP65plMlv8EQPwlVlxqu7jal0tEEVm9tn+J1ziO64PcTkLpySVaekIEr6X9AQxTp4Z4WaAzaNYnBLyR/UVW/B78Jm78vQ6LuDxJY9FsI2/N2b+Cp3tvKSPnEuKK+Y/4LNRy+IJwXoC//un8G0IfMsMoSMM8z0NsihBb+fc5bCGhRvyv8Zbj8TmgybdG5vXruQgA1ZForItgEOo2k/r+7Q4/+6+H3en5P253/ye3cN5f6y+9DRtXj1wc/T+9LHfsfdl0P5zLtUv/AyCMhrZ39MeYeodH9l53waWvl/Xfbl5CwzOQbHt0yWkITUf+OB5GdYBakAr7IiQNTiNOxYtWJ+BtMIA8KEur9dNS+4ov4UIa7tLTK/s3sbX7M3yKVKSBf2T3SmK/C5fcGwXSrF/ghHw+k9dmex29TL9fVoFSiXhXBgjmDFVh/Kp6rICj/CuO8mfP9aA7tWAcXuD17oYNJJGBRxzw6NFe6fbcyaGG0yN7bLHCj1dOr2q+J0AApqsB3Z5wBycxurv2aHiOYzllhC5STyjvdVTqgS3QSYQhWHp3UwIIpQ6+aeFR8nclMUBCfsMHgy8FoA2y7If8ZdlikWUp9mmgimDE/xYy1gKX7kpVgdRCT14pOJEqysS0aJbLJfzD9XoNVwHbZeNWo/uQ0hjxxyBjkdcbY0Riha4BYcfve2H4FXIy4F1yN8dGBgzqxI0XSP7fXxT+UWFlsVgDL4Zlfx/7KpaH6q1N0glYezB8mJHqisDyoChNObOG967VIV13BGyIP5XuNwCfaAwa45cBVrXp/MIr8d2DvYvMPLwy2P5p6LIU16+yFsbLvysGrTwB4SCfq6XfgHQn3egTZ1MMx4xe4gI73++Rukg8kBN7oP/yM34uU1Lsqe7d0bvQgG4re270ggn8XFc3HQZz0ODDn2zloL/ntj3suTEyien87nuQ8BppcEjYozboHooP776GL7VEN7JNccKOCynxFawraReFFOG9cszCur7ppwIbndh3aVj/VahAW80lXLGs4esQNd9PQQDkIFeZk+T2ypsvGlXYYFM5g5LaBr6ufyIn5u05OWfQp+mO4J4i3aFVZP371v8JXI/Mt20zUPEF5fIKZGYGs5GCyUYlTQuaVs08zAJeIm+MX9hXPCxf3sNBJzmI16y6SZ7K8gz/Js25WpwTernPjeYtWWhIXmEECYEjZQTPzqajWLL2ftls3BsDcLMLu6Dy+2BwpCv04u8Z0mgzsLM1Dtmx5oJg+pqUy/BPgXNvnqXYoOJHI+9/KxOuCZ0GhN950noerBpduk8Ka34U86fPvYeJeJJSN21JE8JV5Wlr35tyD/v7GIAqnu61PI3B2zyydfOCbtZNsINwFbbFBllYr6vBvKmPQK1wJn4yrQoX+LJVneiKL1cbCngNh9Z+zkMaQLaUl57690WuBZvesG3zVShsuTF+s5RZ6zKFZ7rYeFu+jStXbC28D6fA+NKDi8TcbAphvd2IYLlKFkgWgc8m7OqjZ7gkKJYl/m3qHVB/Jlw2YSAihBO/9uLow+8NOgpVShlLY/a5G5MW8s5W12f8SQgjNBsuK6IvPV1V9nSqXz+r6Lz3bMFAeQkIIczMP5ZcGp9VdhbuPWgGNpvuwO64AK4d3wAlnSiAMuOX7q3gLjT5IYcyZ5Sh7Y0OiOg3ut4guqMgBNVbSMEnSGYeMsOpc7Jsw9ATYFo91Sqgn+TEJ6G1754ZckEe2unt83UtA0msK4hMLlQx0w74V+E1fONdFHD2uKnyMtJVsj5ceOZgOp3eQSsbqeA/6JY+HaaLgpu8WdrX6AGdIywdxzC5F0kjwSTSNS4Mmk+SFEUd66oG70PZza0edZDTTkQnQeWp4951ZH8EunyeZMGyNFGBhvKBh4mfghTh9IFDN2EY4FKFxS8SgSsmDX0zDe+79Rk+SIoEoyxY4m1tyA7JQvDMylvL1HK5YJshMS30BXWj6qrPEEeML031ZX8/K9aNrp2Fu0XJxVvi/o22t+GKLnHlDPrEXRzo/zZrJMnzeZJXhpjucgD2b5papuA7G/lq0Jcuf2V5UYS+HRSQDlFUzjRsumUCDiagsbV4irlM+ecpSfMKWQTkaBdTrBwkykXDHDeFBlXAk32hn3cZRCFTtEVOH0KmOBOX4wRZEiczFyUD37jk6Ud7BGQgMYX7JsurY8hVYS14Ve5Mft1EfI9XT/4ohNP7ICuX8oLnB8vxcaAIkII2yMukaZr6qGYfC6YdYrCRF3wF1mbwoziRCfe9cnwHLIOZZqs5skhCfadIXzRCgpKmrI6KI1tvqvO5MeyQ5BqB20oWN+jvS/eG0wlweuuJ/u/1ZlDq6PvHwHgS2AR+xad0+nYt+SKUqbwewvUWaX441a+A2bZBupA1IpVLXdmuAXo6/qYpQz/x9GVwQHQBM4Mm7VaHsNkvIAUMJibExwBWLcqkDG+rNfp/5aGwkweyMVW/yKotnuxgE6/lDUmBxEEokmbCMrkpwpttR3QPw0/puHB65fHDdoED4/rHzTH3qzWX9Rm85WDJyTYRONFd/SNwTsggFxnDuHKuh8l+V3t8cRTegKwnNugG7bK5J/DhKX5OFyDJlG9Kmkk6F8sSXJSiqZkjnW/40y1ydlq+fKgLRDj1kM5fgpbxsLzvVudw4Arr1nShjBOz8uf2oz3CMyMxQeaxyaZc4gtUW6IdeeiygurpTpbd/g/B7K4tAsLYtNZF2YIiIaNoD3RFyxo13tGq3DWuPDvrQ8iBrAB6+k+Wd4FmR329fx/KRzq6UvCJK8LiKJRRCNKjg7d894epFGsvhGvAxSZIF34aOS2jhOIRVIlbj6nHg373TaCeXHATRcX5i2PQZheoFh0oyDb3upCmfoJTbw08NFPg/ovM/zw6tl4N7SRYRWtZ/Wx/9koqka2jR6kcNhA4qTikLuAlcEQ4wH2a+Zzn5P75eowYmuQadqawq8+1QcaBMFcMRrV+VhiLhnGjBUiR+OFvPK9i0osFGiXCa55GluYl0afv0Wpaxl9uu48TqCEx6+wCBrG/1H/g9CwB6fcfnHksSKsnXZ/EzGbu1XpmaQ/hw+VPOqD2D+CB39dzJbNlRIXrAaRAFyByQ/+45MXy8Qnexw98Ocw4oIr/uzqpZYudLDhLpiGSW120Q8vPD9hDhhGbc84YULSI0KbFPJnPkc46ipoND++SndwX/4VLzTF4T7Z80EAO8Au92C5dBAjRQRltz3WBKeq6Zsp3ILpmZnVSSPcHmhCLq6ExSp+JWKzSgUlWh24g76/HoYjjwhVU9lwB1S0C8GNpF1LvWYEeQYd7CQm1z6p66TVLuAD4yb/X6ENwaduBeyauibQmSP08zAKtf2UppUDlgoEOWdlwDi9Xxt8u4QggzVqWubKoolg9SxmCQIqZv+N6KwKonrhiMpogwQeyA7tAHkOkFfIAzSCXpDdLD45Y7xBBlrY3XRQeGIiaLnSsl/cMcSZafyme+fEQVcMKgzot3EAMWnG3Ai76TZbe+QgOMFlNugvD0L+VH/5xwGe6loWt4RcMNUV0vbQ/Nkc4YCWCaDYImG3jZpBqkDENIHm6L3056nx27Noqlu8V8hCCmN4kZVHd1TeyWB3ubuOBQ8A8ghv1EVAEXaAFUU3GZCUfbkg38kBobQATdGOy1K+uMznhogcbSJJkq1duo9guYPJ347kNkrh+wBG5BksKjSqJ4lJuYQMfQdchJmR8ia12AzY4F8Y16Auw3OQXC5qFjkThZ0L4HeFtCb9UG55YBmCoeh7uKzuK53wpiy8OgWSh4MV10ao2VeyVYZ4s5TussCur+OdR649gzhwvYBfOcVFeo5UjNy9BgyAVYQzOcH4AY0CyfFBOjESGgI576ab+jThwejtKYi1jtNMSUgCnTd1jfrdIOSu3iYX4CHJOq1quXYa7l6qgaQ7oH/gqremWJlKE2qyGSonoxw4BZKbmStsvmM8NdM1NakxqP5o6OeSRczvV4TCT6WN0f+IpDtd1OIULFSTRneoWoN1zkZd7rhKpxeCWD/jenv31twAtU999FK4cZvnKrxrhoTAg61bDZuOXA/gIvV3AOnlDElR1pvOYQz/axPjCnFiKkKYuG47zrHcIa5MSdUCKOHbodAEvqrAeHup7GK1WciftQgYkW1SKrNa73/VfTkIQ5hts4ifqApySXBvRoXtwaGWfdMhwZmAdZLQCnx9x6uRWysIhrc99bPi7wizqn3Z0MEXHuw+CSZbos2SCnxlSKQBnVFVzvEB40bHu5SAilITupVuBm7aWL1PAuuqD0sDmmVyRcR5huMJ55ftwvex0gV1UBVfTuQ5jgOh+5ldwjCgxSGVRU7HY5ERW0COIXSDXNAZqFukxSV1BiWgPyNgmyEVsLWPSX/Rqnh/qJxUum7IpnpYvByv+SsD+0+8K+BUMZJYvq+X9OgCWHM2wrtjEPnzS+QWdChjc7ADdbQcgIQcw0HX0JStdE2W96OfvxfbiAr2Vswe69HAAXUA1YtcwlBbIZ3ho2vLFk2Any3ApYH6o3mp/2LFDzYyxOF2PUoCwToMI9P0tJussPuw0xPQYLzkkYfyS8yJx5NdMwwZEYkHlPo3x1wO6mGuiF0W5sYuUL+pIbCthmd88kXu6mEsLE6m4i2Pv6NvvJb/evQprlbHQnHGSc4XDGj67ricWFE0t0xclICpb17lXSDUgaVRI7tmPWvCSJofw+2IbJXmeV0k370tS9LWKpsf7htVDu5DPyjK/8mKU0ufHtQmYF07mhE6BXuGpzmMA1U1xG95wAV0JtEDzAMmUDJ5CgQ2Xz/u7AZ9g23jrhm8zybivfb4HoLxpec8mqw0bTmTS8NtyTVLJGI4DO9aX8iBXGREmfQTPHFZh4FIK6+GzwMHK+KxG9T7IXFN0T7YVEltmQHl08uWjsIJgVSfh80Tm6JnwSUYHkALCT32henvfVLJ+NS3M7qbA7S0kY/Ah8bymbjwdrgKosGx2lDa0EF1X+68HCoWqnXP1Qx1zAUOyO4+jJba3v/X4lREV90MWVmUpL+oWXCZDrl3WBlL7bHASM83LOklk4XVI2n7yvJvX+nVtbVZZ48kzIaQljVSdMxzAeLVPkzQp14RNWiRzEs3opDTI57Usri/58TNMnZQG2apaPd6UIPpIoVH95ehjlnLKLW/RpOFN5BFKHt1y8XCnrF2g91f3uviknP31CDJ5x9kBbeARLGF5sWOnbuduwXbkuoFcQnA2G464X3AThncBE/gPbhlAGtx3biRQImY3XjeLwYGsRdNOi9ze6bOQI6h5+817nkK3zMVQ0xpBjy2jSqLluYbjTMjGHucM0lWcsxKsdAE2H14PUn/4ZMFvPI5CO0JSGIsoxOVW8BdDmwZ9hEFhs/q+hBgou9w7kv3t99AxqWM83f1GHjNoGnvO4Hv12VzfgZ/DxUAOxt/YDgbBmdFsfq8DCpKFpVU0THf2EchS+h3QDXUPqSAicEnkVZ1PpPd3QArk1/cyCm+r7ZDN7XdIrgFyEdYFH8K0mVS9Waz679n8BkAmzPiEi/dP1W8E8SZ/uudHsnrR+xoknUVzzx7BTjUKm/sjdr9P+HcF2juKGzYcLkHpnLbMkgZmMi/o+Zdg0IiWiY8uJds8BnzhoHSf4/08SCGIgvZKMpPOirJz3GaPT3U4e1WPfAbkAku+95fxkeNIONnP/MTbSG9hmfTvwMiSvkf4df7wqf1+VtCiP9Bu+novKB8gq/i5IupX4x+TVfa7qSIe+wOuio4Uy6W1JGmxpqC5ODFefgci99IaYF0cI3gy8qXdgC+l2A86/XOA3ZatSrhV9UasacqFIOAzQulWv8pWWm4NHDAuzdnAz2pPDbDPQKYH8cDk8ELxX3uNr54NNzO/nM+HT6N/E6pPwJjjfO3V5TGcTqa7DTweEQLk9Lrl8jeCw72tX8ETBI60uGX8V5rDFcHxPq4AVVT63XfFbwiCOiZop2ZRFNUj/MDHcGYfCWC7R9czX7nH4r8N5kJ9s+ByXEdQDpPGFIn7stvhD8wC/N/D8Dvj2MzQAQpD7U5xjQWz+GkrE8ymzOeLEkbKmASfTwRT/Omzb8CqhNnXLQOm3x5aUD0zuloM80tnQjo2/5YmAC7V8DPaFJsDB8vsN4u+hrMkpLacGfobeBlTvpPIirPnX8NBPkjD30vIsPa1MvpOYLHsIaEjapD2g3nW54PntfhpkKE946TNIpffblCMaSWBiVKeVMM4PfFF6CNG+b2obku1CPI/BNQzK0nfQdrrHG6conVB7C+3h88COkWY+fkRnBcgdZIYX6scNEkRCm4O+y9XkCRqk+bWkk3YebAvZONvh0zlEfaxZDiQYw6u8z2kK4o8khKbqkvyi2mzUaJKhHZpn6Af+ysoa6RoeXECSRfZmX7Owz8FPnCTMrOg4KQqPVdP59z4NCSBvs55yhqT+vssEMelpGLL4V5JiTasVNQ1IKS5iVaAEy3JSA//KYhYn8m2Y6Yy4UqS33HUydgVcbXad3izzF1JRowYMWLEiBEjRowYMWLEiBEjRowYMWLEiBEjRowYMWLEiBEjRowYMeK/wWTy/wG7QAsk2xVI4gAAAABJRU5ErkJggg==;" vertex="1" parent="1">
          <mxGeometry x="97" y="120" width="316.53" height="90" as="geometry" />
        </mxCell>
        <mxCell id="bZkYJHnAxm7wtyXOv3yM-2" value="" style="shape=curlyBracket;whiteSpace=wrap;html=1;rounded=1;" vertex="1" parent="1">
          <mxGeometry x="40" y="180" width="20" height="120" as="geometry" />
        </mxCell>
        <mxCell id="bZkYJHnAxm7wtyXOv3yM-3" value="" style="shape=image;verticalLabelPosition=bottom;labelBackgroundColor=default;verticalAlign=top;aspect=fixed;imageAspect=0;image=data:image/png,iVBORw0KGgoAAAANSUhEUgAAAJ0AAABECAYAAACbFzcxAAAAAXNSR0IArs4c6QAAAARnQU1BAACxjwv8YQUAAAAJcEhZcwAADsMAAA7DAcdvqGQAAA21SURBVHhe7ZwLWFRlGsd/NOINFTDUEJOLA5hcBG9oWy5opHgpc1czzLIVzXQ1M83acDdL1sJ9lm1LbVufLStZL2tqpW4ihokIIqCiCIKgCA6KiMIwymU4ewYOxnIdbsOg5/c88+h5Zxzf883/fN/7nfP9PxNBBBkZA/KQ9KeMjMGQRSdjcGTRyRgcWXQyBkcWnYzBkUUnY3Bk0ckYHFl0MgZHFp2MwZFFJ2NwZNHVi4oDS1dzIFcrHcu0FrLo6kVLieYuJVr50XRrI4uuzdCiTo0lIadYOpapouWiK8smIvgVZix+k4XPv8uejDvSGw845WnsWrGeI1dl0dWkhaLTkPpNIK+GjeCd5d6YX/uOkP2p4jX+oCNQcjacUI034117SjGZKlq2nk4TQ/D42Wyb9hX7vQ7yzLxEZoT+gxVeVphIH+kYFJD45Z/5JDJPOtahITsuFVzcsela7WzMxrLkwxdx69bQGapJ3DCfP5q9x665znINUxOd6JpHuXA3LkR4wnaksHTfVSl2P3FF2DNvhbBHVSodN4GiaOGjx18TdmYWSwGZ6rTgIiwj92IyKuxxtbeQYjJiMUdhwiH2OvrgNaCzFJOpTgtEp+byeXH4MXXA7hG5ce8h5BK9N4aRM3/FgI5VYxiMpotOyCZs7WIWzAvg3S3p0OM0X69cyIJX13HgSnvO1IpRRWxgVeDbLPCeSVDkNbGcr0JN6o63eeHt/6KqCBZwZsMLOA96hS0XNBWfaC2EG3Hs+9GNyaP71ahrjSM/Y6DpojOxwTdwA5+HLOHJLqLmnnuXzzb/k8//8Q5+j4qBBikmIzQAZzt7lE16eeAfmiYOXPUhUHphJ2tjhxP4we+ZrEzji0/CuVz1q2pOs+2D7ZzSKqicEzxEN8s+mGtPcyzpZsVHaqOgc/eudFY0pbsqISviB2J/48fo3goppqMt8uvASLVdkylL+lyYYDtUeHnHJXFK0d7kCZHvB1YW7rd/EgIfGyR4rTkqFFS8Vy4Un94gPG3rKczdkf5LriVnhc+nThI+ir4tBVoBbaqw9fnnxO/MlwJVGEl+RkIzazotNzOSyRAnEaOc+xjB7ZEuDJj2OyYOUHAzJoy9GjdmTXGn8g5ZMZfjo7jIELw9rH/J1dScvv1H4ulkJgVaitibpUSwPe8p/DzNpVgVxpCf8dBM0RWRkXgWrelgHBsdUg2BGbZu9vQwySPuYAQaR99fbsqKhX3S8WSwGYHbwGq5ai5zRu2Eo0X1YbAlFJF8OBxm/prBnWtehsaQn/HQPNEJ+WQmXYMhztiZN6VR2qqmk9CkEv3fa1hP8sKp6ocvvMjJo3l09/FA2aVKDAKaxFiuTBrFwJr6aC6acxz4pjPTvQdhKoVq0Z75GRHNE92dLM7H36bHcEdsmvQNXbD330zKpQzSmvQ6Rai/svFkC3K5UtiLx+z7if9TJYIupunOIKU1PaQYgooj23KZ7GPb3K6+BtK9OecpjFN2lWJ10G75GRfNOqfy7FTiC3vwmPIRukkxo6C3kpFD4XJ2njiP1HGHjJ/DiRF72Bv5akorYsWoDn1N2Mi5TLKut09qGhX35qJwn+bV8L259srPyGjGs1ct+WGBPD4/mSXfbWWRe3cpbgxoUZ/fQ/CftpLjMgZl0SXyPBawzCONTe9JsdIcCu1+y+K5o3mkU+uMXULuft4Y9xMTDq/Dr08nKVoX7ZOfsdEM0RUSHzKbmTueJDR8BaO6358Noz+lqPasZPLJaUSs9aaXFJWpHz2HVzWpoa8zbuYm4gtySI7Own7mONweeMGJCFkc23OFWVM9ZMHpiX6i06YTtnEf2eK8TJFxjO/TfVk+y9246rl2ojztCFtTRuPtVvPenEx96Cc6hQO+S/3xsctk618TGPvZW0y8T4vcpqHm3MEDaF58Gg+519cbeVPEllCewpbpf4Hgj3nZyZgmVMaNLDoZg3M/3nuUMXJk0ckYHFl0MgZHFl2d6GGULsshMTGHMunwvkMoIC0hHXUbVPyy6OqiEaO0oE7kqzc/JkHRjQ638KjwOMHjXaTVOxMIjimQ3qiBSRfMbn3LyqBwVGWtqzxZdLVoxChdlsF3f1hL0pSlzBli3sH8vSI9x/BW+HFCX3MChStuDvUtEu2Ctc9iVjrsZfGnJylsRd3JoqtFESlHj9J99nhcai3GvEP6jmD+Yr6QVU9VW+Xb0ShXcT4qC1zdUD7cUF/dDYcZr/Hs8Q/5OCpXvBxbB1l0NdEtxgy1ZPZ4+1qNI+RH82VIAS/5e2HZTorTntmA95L95ErHzSLvIvFnNfqthzR1YmrAYP7z9/2klbaO7GTR/R8NGaVLyDq0g+39ffF2br+nD0JZCeo7JeJUp7kIaC7Ec0Tbh1+PcKDxM1HQ28uXqYnb2R1/W4q1DFl01WnIKC1kE7MvDvspo3Do0K12l8tJiahxYpijpRRrhF5DGDv5NqE/nqM1XLhNbD6BspwYvloTwIyX3yY45EMCA5ayPiK7fW4d6LYp+1sgqwMDGDc5mMjcalncTWHn66/wzsHsylrkTgIbn3HD+fktpNYzTNRvlBa5cZ6jR7sx0rFvHTPWDmSkFq6ScCgJzN15rMIIpEV94XuCFi7j/TWLmLv2CLm1mqcXdi72qA+e4mIrbMnVBNGVcSNuM4umBpM5dg3/3vIhby17BT9XDfsWfcpP+fVkU55G6CyPaiYbPV+DAgjNaGjHAN02ZZuIHbOc938/BeW5r9kQdln6scUhJG4nQXsvoDUxrRSQSVcsrC3QxsSRlFdXrvUZpSvRqjI4pe2Nde+aA1IHM1LfSudUvBrTpz1x7FKOOmkH6/d0wn/dfGyTooj84jtO3qjZPqZY2TyKqSqdrJstV52eohMbNmM3qxdsonDxWlb52FCxKFudyuGtP6MZOwxlj3q+6iEl/ttO1WG2aeR1cTP+9tUseTUpjGf7CU9mjbKgMDmBaPozxNZS6qGKuHgqAbXCnVGDpc19ug5mxrKXcTEfgLVlHTO28kyO7srh2Qmukh+1OuUU3bxOPo9i07dmrZfPie0p+MwaRs/CNE5GFWDlMpCHKxIRKEk7TWShJaNHKanMpAeOM15lvrs1SmtDL/sUKM44x/HS7gx2sUGhE9y+fixcPhH7rmXiZdeP4QunMcKqZvso6PlwX8y0WWTdqHR3tAT9RCdcYf9H6wkrGM9Lkx1/sdj1fILVsRc48dkM7E1rDUhti+lAnl3uywBxHhez/zCaQZOYPEyqUcqziT+YDK5eDLWpEokJppZW9K+4wmvm2pBRWkc5mlv59dQzbWCkFq4Tsdq3zhFg8PS/c+vQGzxRx3uNjw7FZJ45iUrMuVPsZoLCbFj4hg/WOi9Gt6HM3/4j21c+SZ96f8pCiu4YqKcTcuI5EJaLqZ+PeBU0ZDwxIF0H4qbshcmtM4Ttvsag6d64ShsVCtfOc/xsMdbebgy8d4bikHsxhSJPB6nHqU5DRunGaAMjtUlfvD8Iq3MESP52KRZPhRBZx3uNjg5V+ZjaY9tH4NLuIFYFbeWEgfdF1kt0unrmpFbskocNkoaNJtBmNZ0OUUhJMRwsHYzfGAcq+7RyClMSiNLa4O1pe89fCrc5e6yAiWMG1J4kNGqUVmBpPUAsp0sore+RUEcwUkv5mPrNY9WfQtj2w1qGn1jHnGW7yNA52QU12Zfz6pgUCmhLS8WWVWLfvwFfr57oJTqFZT8cxZ+vj4VZ7X8g3CZp125O1DeRaKuargItBbnXxfmhndgYVY4NXeyaOBQ+itLmnn1ZvMij2HZpJD52Nb9TH6O0ODT37ostmWRdr+dC6ABGam12KrGaHniMdsZKFLyJWV9srEzR3izirngtCVkHeG9zYh1lhJZ8VRYFPfti1aue3rkJ6HXeJnZjeenZnkRHnedmtQtdUKcTsTGIf6qVDGmXPTcU9HZyx02RTfb1u5Wh0kv8vO+k+JcC8gsr7cuUZXHo02hGrJiAdc3eRU+j9EM2jgzrmUNS5i0pUgOjN1IXcyXhOGlifTnOs7/U24vdm4kogYF9sFRoSAs/g+tzw+pwtWnITElBMdyZgQ3utawfei9XF9RJfPtREF+qlIxz6cbN9EsUWHgwcY4/E53E2kr6nMERe9rz34bw3r9UuIy3oyhFw9ClAXgkf8Gaipi9qMM72M5eyFwv68pZdzX0N0rfICLwNyxlDZF1+lsNY6Quiw9h9EZ7ftg8jUekmH5U+pVfiHiG3TvnMaSiBBBzTvo3K5aEYTW2Pwqn2ayc5SrWp5X/4h46L8hzc/jx+VC+0Wd7j8bQie7BpUS4uvt1wfPdn4TGd4ErF4qig4XHR6wVIgu0UszwlMb9VRg+b7egko4NgfbCF8I05evCnqslUqRlGLqsMC6aZJQ2ofuwaSx2ieCb8CyxtG4fTDp1ppelWbUJUltTwKkfvke9aA5Pt1JJ8ECLrslGaVMl0//wEnc27iS2sOX3q5qDwn0xh9f7oudT0xYiUJq+j0/+M4S3Xhzaaub6B1h0zTFKm9DVaSbrlt1iXXDrr6g1NnQrpLe8H8GoTW/yVIP1btN4cEWne2oR1gt/X0fp/p6+dMHabwV/dj/GB1+ek2aq9yGCikPBWygK+CPz3S1adaIom61lDM6DPZGQaRdk0ckYHFl0MgZHFp2MwZFFJ2NwZNHJGBxZdDIGRxadjIGB/wE6DHwGwaMziQAAAABJRU5ErkJggg==;" vertex="1" parent="1">
          <mxGeometry x="110" y="260" width="157" height="68" as="geometry" />
        </mxCell>
        <mxCell id="bZkYJHnAxm7wtyXOv3yM-4" value="" style="shape=singleArrow;whiteSpace=wrap;html=1;" vertex="1" parent="1">
          <mxGeometry x="400" y="225" width="60" height="30" as="geometry" />
        </mxCell>
        <mxCell id="bZkYJHnAxm7wtyXOv3yM-5" value="" style="shape=image;verticalLabelPosition=bottom;labelBackgroundColor=default;verticalAlign=top;aspect=fixed;imageAspect=0;image=data:image/png,iVBORw0KGgoAAAANSUhEUgAAAOYAAABVCAYAAABdNJhgAAAAAXNSR0IArs4c6QAAAARnQU1BAACxjwv8YQUAAAAJcEhZcwAADsMAAA7DAcdvqGQAACDgSURBVHhe7d150Hfl/Afwb/Z9KWuJqFQkS6REmWQvRCUqM40pI8peyb5MmpCyS38wjyWZIUzIzlMiUUSWIlqkDVmzfn/X69P9vn/n+brX5/nez/19mvOeOXPOuc451/l8rs96XddZ1hs2DHr06DFRuNHUukePHhOE3jB79JhA9IbZo8cEojfMtYg///nPtf7vf/9ba/jnP/85+Pe//11lN4Tu/n/+85/BP/7xjxsEL7Ohy9u//vWv4nfc6Ad/lgGEySBvetObDm52s5tVGcO80Y3WbT+JLzwFVGu99dar7RsCf4APjpTcOKEb3/jGVa7sJje5SW2PA33EXMv405/+VMp761vfuoRKma+77rrBX//616kz1l1ESYHj6UaSG4JRAj7CJ7kFcUDjQh8x1zIo681vfvPa7nrcUXTFMm6hLzXQjjdKHIMcjaZdhNdJ5zNRMfRmnQg6TvQRcy2CcsYo//CHP6ySBi1FP2VtgzFaGBgFZpSUF9/Zng1zHZsUoDH8kBee8Co7GDf6iLkW8Ze//GVwm9vcZpX+yN///veKJPaj1FnWNeCrGyVHkeMz8UcN1wWe9TGT6YTPpaC9j5hrEYwSrr322loD4TLKP/7xj6W4hD4T1gX/mShJeTmc0HzZZZcNvvSlL1W5ZSZe1hVHhE6OFJ8f+9jHBj/72c+WhPbeMNcipEBw29vettbpb1599dWD+9znPtNKuy4Y4UxAP1BafEVhP//5zw9e+MIXzmqU6wqSqoOBn3e+852DlStXLkkq2xvmIiCiQdd4uhEuxwP7ERqlzOBH1jl2q1vdquoxMkuZU08M2b3WRkTJ/WB0lDi0ioRdPkd5BucwzrTRHe5wh8GVV15Z5YmqoE3SfjPVM4oYvi5BF3/729+mtlaF8/E003WjxjR6/+7x1C99Rb/5aGvAY+qH2fjA+2LQG+YiQBganpHEUAgrQoywnBOFIzjblDHCkcoSZiKn6yiNMkabET73oFizKd64EUMC0zmAdvyFJrTiGY9oQ2MGrsLfLW95y1o7pk7lrrdtifJqk7RT2m4uZHoiXYK0C8cWhF5Qv/ZUZpoq10HKAR/ubz+0KUMr3lI/PpSRm/VvfvObkuUtbnGLVXTAeXEC6rOfNlkoesNcTVCSrsEQYIRBOJTSWkoXRSYcQhJBKI0yAqa0lq53d57rKRDBrw3E+ChZjKBreJQQPXEY1njDI15izCBC4s2CF+fgjfKLxjEA1ztumQ8M5IorrigjA22ofkAPqA8fMdA4u9vd7nZ1vMtX2l87g2ttkyNenItusE1+7o039d/jHvco2SS7cJ22cl6cgPvYD30LRT8quwhQCkYVYREOYY6CAt/+9rev7d/97nclGPsUgeAvvvjiwb777luGTXCU4Fvf+tbg4Q9/+LQy3+9+9xu88Y1vHNzznvesepzbjQxLgWuuuWaw/vrrF02jQFPKKSnlt+8abXDHO96xjuHxvPPOGxxyyCGDs88+e9oxUVhKbFtde++99+DII48cbLTRRnXdbG3ZhTqOOOKIwZ3vfOe6ltFZYlhBl1ZwHeNBI/oY6igYsXoYUFe+0lYREm277rprydOiHB0GttTrWsb/hS98YbD55ptXu5BrnGpkv1D0hrka4N0ZGxAkQRM+4yEkysKbQ1fhjLwybDjmmGMGd73rXUuJfvvb3w6OP/74wStf+coSpGsY8j777DMtzMUKdk3gXhQbbbknRVTWTQfngjTvXve6V22/+93vHhx99NFlqHe7292m2wxsM/Sk9XNB+z7oQQ+qej/72c+WDLrt25ULLKbNYoBgjjmOBrry7J7HeT73uc8dvOxlL6t9QKN2S/bQ5XVRYJg9FobW6LVujV1raOnLsCnA1N7/H1Pe0p7ahuaxa628CbqWZsxVBkRx0UUXTe0Nh82D17oZ87BF4NpeajQDGTblrm30QegNQgvaHQPXWZrSTrdF2go+/OEPD+9+97vXOaBdwrv2wmszsNqfD80Yhs94xjOm9v6fztQTKLePHot7u0fO+f3vfz9Nf5fWQH1duTZjXaV+2/e///2HzenUvroiY0g7wtVXXz21tXD0fcxFgDc+66yzBgcffPBg4403Hrz+9a8vzxiP/ZGPfGSw8847D0499dQq51lPP/30wTbbbDN41KMeNfj6179e3rMJvaKPdLApTKVRIuWd7nSn8s68bjy0yClFEhmWGlK4c845Z9AUf7DhhhsOvvKVr1RZ0kLTA7vsssvgjDPOKNrxaH5ys802G2y77baDSy+9dPpcbSV9vOqqqyqSiVyiDWgX12sHizYJv3NBO8k60hb2mw7XtvrV04ypuhLOsU825hqbc6gI98xnPrPoERHRb6rqSU96UpWDfTJ54hOfONhiiy0Gj3vc46pcppPI14ywtvU38YsOdelqNIMvGpPCom+DDTaYpnOh6A1zkXjoQx9aQtT4jBQIGhjht7/97UprpUPwyEc+staXXHJJXUuBKCUQcAQIDJJCOU6hKAhQthj/UoKC7bDDDpUu6kdRJoqHJg6DY/n+979f6SyanM8R4Um/mQIysNCND/2we9/73tV3dZ66oqR4SlvEaOeCc9WRtrCPLguo2/H078kBWmQbHHTQQWVIP/3pT+t6x5yvG/GNb3yjHAh+OEdyeM5znjP45S9/Odhvv/2qDjJ2vgX/5M9Jqcs9A3ymu7JYY+yiN8xFgmAe85jHlGAtokKiwxe/+MU6R0ThkR0nQIpiYIdAExkIP/01AwUrVqwY3OUudylPHEHHaLuCX0pQdMrpYQd0/vCHP6xyyieyffnLX659PKEJDxwQpT722GOnRz4do5ThlQKfe+65pbDqSlR1PEaWfluMCUS+wP0hEQqs7auHo0i9uXcGcRyDTTbZpO6XjMT2cccdV9dxRLme7MhQf5iBgnMtcTp4kUE873nPq7pmcizqS51ZLxS9YS4CSbuAIhGSFIY3/fWvf12Ked/73nfwq1/9qsooBoGJpG9+85unlQuiNND6X9Mp03KCwjJO0wCikAgDFP2oo44q3ijYBRdcUOX4PeWUU+r4nnvuOW1kgP8YBL4XEj2ck3YRxQ488MDB1ltvXVnH4x//+MGOO+5YToDRKJOCPu1pT6sIb33mmWeW00AjBxoDjmPDm8yFI3UMv6eddtpgyy23rO0YF4cgjX/pS19aI/HawrWQtbbBv0EuiGMZF3rDXARilGBEVbQgYAr42te+toyPEmSKhHIcfvjhNbT/wAc+sIRKyBSQErsuHjjRZjkRo0gk199iYBT905/+dEUHfFF+ECne9773Dd72trdNp28UXBuoS98Or67pOqXZ4F7OEzXVLWJtuumm1YflFEwdKWcEop802ZJtdMY5kFW20WDhAEMfh/qpT31q8OhHP7qMnhyTAuuOyFae//znl5zdU1rLIeDpq1/96rSBGiF2bbouY0MjuMciYOStGddwp512Gm688cZVdvLJJw8f8IAHVPkjHvGIYUsFawSwef1hE+zwwgsvnB7Rc062oSljjQo6fxLQosawKd+wKeOwRaEqe8tb3jI89NBDh5dddpmwN3zd615X5c0ghy1y1bZRS8Dfd77znWoPS+vDVfnqQNukXTLiucUWWwxbH7+2mwFPj4JrU4v7WwLbzfnVdktLhy1NLZquvPLKklNzosM3velNw+aMalRceetSDFt/uu7vvs3hDlsWMWwp+fDVr351jTBvuOGGw5/85CdVb1ee40IfMRcBEY4n5Zl57Sb0Sn8++MEPDpryVrnIx5sanZP+ma80oNCNtt2UT32JrssN/IgkJv3xIE27/PLLB80QBy960YuKD5ARGETxAMQ73vGOinAipvOf9axnVXvgH8+iFCQzmAvOSdRECxpEK0iEci+DZqAsaap7WchAHc1Yqtx+zjGS7hjgabfddqv+pL69e6tPn1MUfchDHlKyEfnNvyoTKZsRDz7+8Y/XoJF0N3zO1MdcI0wZaI8FIN67Gehwn332Kc+61157DQ844IAqB165pTfDlgYNWx9oqvR68MCBOpbC064JuvSsv/76w5YeFn+HHXZYlYlOIs4OO+xQc4kpF/GhpYDTUUQkbaln1WnOcCGYKWvoRj9tZu5Q2ytXdyKm6NltXzTlWPDRj360Ir4I2PqlVdbS8sp4mnMcnnrqqcPmmKockgUEIq97mpdUT+uDTh2ZmfY1QW+YqwFKcMghhwxbdCzjPPfcc0sRpIFvfetbS2gbbLDB8JxzzilBEiiloViB7QiaknUVcDlBwdDysIc9bNgiyHC77barcnTie+uttx62bGG444471rkxOscgRsp4PAwQZDJ/Ieg6LfdIG0Hrd06n2MpjEKEvCB/Ztpx22mnDFt2Kfg89BCeddNKwZTHldE455ZRKXyMb69wj9TmfjFu/s/i94oorqnyc6FPZRUCKBVIec3ZNUDXgY2BHOmrQxGiduaz3v//9NVoozZEOSYuksK5Rj23lSb+a8Kvu5Qb60NP6h0WTR+lMBaET3ybdpYZSWHxIBQ0GOWZfO0gXjWy6JlMeUuT54N5B0k+pLHqg6Wt1IdIVyDmgDA1obsayynXosm8ayLbprjxQQF5Ge123++67Dx772MfWgwKuRb97uDYp8I9//ONB62eWfKX8zpEKNyOu42PD9fY5GRBxgm4qkkea4rEuvvjiYWug4aWXXlr7ynMMWmPXOp4uAwfzQR3x+JD7W6eu5YaokMib1K3bbnMhEcb13egN3WizuogM3EcK3BzWdKTspplrAgNPxx57bEUySL3uuRC4TnuRc2RKvqHTYBDgJW2UrMCgkfT8qKOO+p/2GzcmMpW9/PLLp7au7wOAxpMabr/99tV/2WSTTWrEUwPGgEaVK8IigMUoBuGpa1zKNC7MZkz4XKyiaJOka+NEFL5FpRr11IZdp7mm0O+LQcU4FwPXarfoTKAduo4F0J57GWnedNNNhyeccELpp/Kcn0AwTkxUKmtkqzVGzV+1xqnHvDK35OmYPfbYo1INr0iZGH7yk59c1ySlkcoEreGqjqawlYo4p/E756IucJ26pJ+gDvUtN5LCARoD6ZRjM/HUXZpCTo9YapOk0o41RZ2qbc2QutUr7dSG46qbHIz+qp883ANPRmnxsBC4lmy7aTCoS9tA6tI+zneP9773vTXf6aEH+mk01ihtM866dtyY2Ne+TNjqvzBIa+8vemDao10aBtkaWP9H/yXrKIaGJ7yuMs8HdepbUIBcry51EtJyg4KjDZ36QaE364WCMjl/da6dC2gzjaA+T+bov3m21hSSPvk47oN2DlR/PrJlmHkoYi6M8mo/SHlk7z7a21p/0lNAjDI6oe/sXFMnS6EbE2WYhOqtBo2B+UCH27ySNzR4KSD0PC3D0xl0SMNnP8bqXA2a6DsbCEIjGzxYE8Vfaow6HApi6WYMMyHXpW05HDxnYGpN0VLLms+11ubkqB09leMJqDW9x6hejLbDfIhRRZb2wX7qjc5Eh5zjmVhzmfa1GTq0tzdqXvGKV9R1i6VlPkxcxMQwwfKAPCPBer3KRP1rXvOa6WdKt9tuu0onjIBSLtdQMGmFfdDgoynLfNDwMyn4bOVrE9pDeshbcyCURzaxUMylPNK1cXj+0Jh7qZeKpVuwJmAQ6k3qyPgZi/0Y1FwYdbBR/ZSlDaI/6nWOrM3DFTmu3fHjOvpKx2LI48LEGWa3gT0Mvv3221eZKGZY2tC85xO9N+i8rrLFOCGG5KFlAnStc+eC8/VrTXM4NwJYrHGvTfziF78o4+Txo1CzAT+iF6eHP6IPb7a7Srs66CrnaHo5LsdGxonESwX3iE7RHWl4oJ3wxvmA7//QrbGDYU4KmgHWOlMW9g1V77bbbsPW6R+ef/75NdTdPFeNQrYGrPOa0GsNudbwd1OUGh1sCldPsTRFmXNpRljPYmbIPGiK8D+jeMuFq666amprWM/gbrnlltU2aJ+Jp+7inJZ61TOvgTbSfngcByILMgLy6MpnTZB6yD7b6I4eLATNIdX11oE6UqY9ZkIz0Kmt60Efuno6bkzk4I/0AJAmneDlRUevVs0H3o5nFkHUo28gBfG60Hxetgm73ibwJoP+aKJJorgoY1G/unlu26J43q5YU6AhkUVaiP9kAdqjG9WcmxezHUPPXHCeSXYPRHShPGlsBt3wCSKHbGUpI9QNCfQv8pJB0MOkv4tKdRnmpCDequvNmjEOm1IM99hjj6mS+REPygvyrLybhWeca5kJ8YquF4VFHs3WlLfWolBLayoq2x/H0hxCrUX54447rrIEfKRdul4d3Y7hdZSf0QXw4fwu1Kf89NNPr0cM3bsZ5Co0jZO/G/Ky0UYb1UMQefhldTFRETNehbdOju99P5/X/9CHPjTYf//9q2w25Lqud+p6sPlgUKUpaHX0EzFErW40zFcKNJtBgbyv59pmtHVsdZHBBlFRfc2YKrp5JxFEafzhKfx1eZ0P+kaATvcRcdPOsgP388aEYyKktlC/NvD4me0es0O7aUPfFjIOAmRGnsrJd6GYKMOMYUVhLE95ylPqkxZeKVpIJ5syaQDK63rfevGdU+nofOmYFE6n/sQTT6zUNQYtlaO4UtbQ0DX4caayjIehxWCkmVLbpLBJO7WRt+u9zGuayX7S0dmgDs5Nm3QdIOUJf/hXho44mq48eswOxsec0k50jo6sTrtNlGEihfLEuHjorbbaqsouuuiiqbPmRvpDqcscFMUFCjgXYoC+X+P6eDhGSOnVxzCUi5LdyB7PuCZQZ+pwT3WORmHRKyOC7m8qKYZjPRdEeE9OcXaJmu6nHtcy1kRgx/Q3TUdBlKzH7NCG2igyTPuCYxk7WAgmyjDjuQPG6NOPO+20U30ScqFgPJScAWXOb6FKFafA+4HIkQcZKKfyGIaIJZWFzKmuCeYSXjdCMx7thE7D+coXKnT0axt8Uhr1xMHgVVvFIUHX+fSYH9rXEj2mi9qvq9cLwUQ9K4uBGAR4S54C+exjt3w2MBygWFEuo6sUVwMtBK5jIJTXEmNQt/SWUTISYJToo7yMMkJZ3YVxcU4ML9Ed3THK8BenA/ligmi/EKjbvVwfZcm9GKpy9/S9HyAT18Aovf2y6kIPrLuI41ssJsowKQalA8ria2yYMn2R8rmQKQ1JQJQtykx5lc+3uN65MTjbFFXdafRuBLGd/Rjz6i5AkO6ZOkWwHEMDMJ7wJWJC0ve5FpCmqo/zSRupD6/qx7d7ZwAsERm6tPbL/y70g/wsdEaba8v5+v4zYaIMM56H0mDuc5/7XCmPp39GPdFsiKG4HqLMjH4hSwyCsma727Bp/IBAgih7FD7rLgiL8usrBvpyXbgvWgKG2oV7hq+k2TDKy+gCoVed4UOZe47ypkw7uDaGLWUPupEdooxBoi4ky5gLc52j7u46+qAtg9m2Qd1xYnFq3fuFj9QfJFtQn3vir8ujbeUWbRXQmbT5aqFVPFHIky2e+EHeU5/61Jqjsyw3WuNPzwfOhybgqa3rX2RGf1OE2m99uVp36+qev9xoilv0ZA53JnSfhHFeeGkKXPOkvjYHc9UxE9SjfSJv9aVu9fq0iK/aKWsRvcrBMXBdypV1aYM/Tr3fG5kAfgP3s5CVdz8hcpsJoaNLyzgwURGTV0oKddJJJ1V69vKXv/x/IshyoRt5umjtWIvpBusm8PKg+LFtBLTLQ6Id72zABbqRd7kgkqBfu4uoyRT0X5WTSyKKlFjEERVtByIu3j2tBY6NZgRzQRu5v/YC9bk3GAx0T8fQmjYTCZOON2OcLlfm/upMpM8bRpEJGUnVXQvu53q8Z0TcfmgI7KdM/eOW30QZJiU2teHXZt4mYZRe94KZDGISEAFZfOrRS9xeUyPsKAt87WtfK2XCo0UqS9E8qG/dTSGXC3EYlBvQazn//PMH3/ve96Z/GoQn9OLRbxQ4FwZj8eijB+u9O+sFAjA/nDrngnoYvntoTwYOUXqDbdrUeTEa90w6z9AYouuck9QV0OTflZxEysnAPt7Qp66U/+AHPyhZegzUPTkn9eLdYrtrmGNHq3yi8KMf/ag+3/DNb35zquR6NGWe2posNAFNpzI+XalJN9tss1Uem2tKUZ9F9MlHaRJIBX1pzvm++pbUb7nRlHOVtNoD/T72jE4fsw79+Pa45Prrrz88+OCDqwyc79OQTVnrs57q0zaLhWsic3WAbz+1jGp45JFH1j40A6y186WtzcBqH2y7duXKlcMDDzyweNh9991XSZN92LkZ/PDoo4+uMuefccYZ9YU/569YsaLKAc+jy1Jh4gyzi2uvvbYUNo0/qegKaptttqnnaPVlosTNU5eQfTMGoqgUzLnf/e53a3+5Ebqi5AHHstVWW01/ypJi66PlO61PeMITqjzOiANqEXWV50WdvxCQN+NI20HqRYc+5vHHH7+K4+vS2jXMLtTZomx9Ezdwj4MOOqh48IGtbj149cV10B5dZzUKck/bjQsTlcpKgwKjYVKlvFkipVputPaaTl+6kMok/dI3k2bZl+5Jgd7znvcUL00R6nypmf6otN1PcywehFhuJN1EH3rTn/Q+Yral4VJG+/5ZIs0LX64Bqfmzn/3sOgZSx6Sec0H7GWPQv9M20kmPYl544YW1Rp+vwEtL/WJdii3V9E6kOe9mfNP3BPv0Bq1oRgOZRJfcw7PP+rQ+gZK+sjQYD74pBZGr++N/Jh0YO9pNJg5drxdPO5snXJvgFS1zpTCih3c6m6LUPi/sjY0999yz3pJpSlEZgDq8PXLyySfXeZOCbtSARCYfgPZlQhBpkp77h4uvo0c+rb9WH8L2ceWUiVZztVmQqKSNfDCaejaDqHWW5jTq/VPb0uWU2fYVePcC9x6NYr6Q/+AHP3hqbzhs/f7qTij33i6gofWbSzZSdbMDoD6ptExIGyUdXipMVMQMul4vnrZbtlwQSSyi4WzwoTCP6vG+BhF8DsWHnPzajgdvAq4MwH/7/Q/Ds6uThLRz041aZx/NaAdRx4euP/CBD9T7nSKMxXEDLP7G7IPRuVYE9NaK7zmJRCDydOF+olLu+653vasGm37+85/Xn7YsIqj2F41FTFHScYNuBty81ZGRZPd2bhciujJ0WvyFzdfvutmMtYf8X/WqV9V/V+jfZz7zmfqhrw9DG4z0hQvPKAfkOnawzh7jAS96+OGH1zuaTQGH5513XkWTCy64YNgUoP4QxRuLNpreX7UCUWgSMEpHIp355KakxWNL/2oQpSn3cN99963BLjj77LOLr+6YgKjkHNmCdjG45zrLKNxL/Y6JfBYRDE2i3zXXXFPZiL+MObebvSyk/UR3H6FuKezwxBNPHO66664VBX2c2nuUxjQ++clPDrfddtv6qDioX/T0Lxr3k8G9+MUvrmyhGWyVJUqPExMZMddV8Mb6Yzyofs0RRxxRX1Hzq3Nl+jSOmw7yRyy/GxBVmxwmYrpkJiQ7EO1ERX0101h777138esPWt5aMZ8pM/DrBNEVTEM0Ra8/ZJmX1gYiFahnFO6lTm0h8llEUfvKTW3oY+qfo0WZa9S5kPbzf01R1rSL93zf/va3lzxMt7iXcQ2R8rDDDiu+AM0+USmCu58I6vuy1q7TX3UtmsaJ3jDHDBPYHnT3uhn4VTglpNiOveQlLyklOuCAA0rozo2yLjc4CMrXhTJLXvz1a0EvbzNMRuE9VANc/nESpwN4av3SShUZQrdL0k0z1d2i0vQ2qDf3daxFpVoMBLqOIeQNH5B+5tq5kOue/vSnD3beeedKt10bA/NCvnK8qc89ycq/TsiQMwAOVncF1Kd8XO/jTqMR0GOMkN5oVgMUZ555ZqVl0iFzacqboGtgyKBC0jDIwMdyoktPIEXEwyc+8YlKR/EgZQVpp6mgZiw1SJNf8EFSS3xJ91rUqc+V+OdMF+pwHFxjfyY6QAqKhta/mypZHFp/v9Jpc6EZhINjjjmm+FLug2+A59DlvNCkG2IQrGUGtR/6pcHjRB8xxwzpUutXDg455JCaBhEdWjtXxNh8880HK1asqH/+expGZBBtYCGp2FIDPV00Zay1cr9bF1lOOOGEgQ8dS8FFEWkrnv023eCL6CGNB3xLRUU50U59ohDYTv2JnuqzjNIRSGWl/zIPEa6bGqfeueAtJW3vy+quQ7uI6bMpsoCzzjqrXswHcnPMVI/z0GR6RrT1V4BDDz20jodebTNWlHn2GAt4T0/0JErwuk156phtHh+UdT9DmXOWG4kKiRTZBxHeUz2JMjkHr6ZU8Jeoketyrmv9FJa6+Zeoa7UVdO8xipwnkqofDCalHcH1OWc+oDM05b6ZHsonPdVzySWX1HZ4BNmAn1m94Q1vqH31iLrgmoXcfzHoDXOMiIFZR2iQuUDoPnrXTV+75y8XoqwxmpkQBaS0oZkzClzb5SvKzTClskZlR+G+zrPOdva7iHGC+cSge7/50HWCqa+bhoZewGvO32WXXYb7779/8Rd+u6Pqc7XZ6qBPZccIgwtZe5okME8WSOkCaV7QPX+5kBRSejYbknJLP0NzBmKkl67Fl21oOlbpuqdzmtJPP9geNIWu+zYjrLVF3ZbQE0gvg7wlAt12nA+REaS+pKFocV+0gLXz99prr+Lb/1fMmXoKab/99husXLmyzjOaO1ebrRaut88ePcYD84JSXpAmvuAFL6iH2s37GXgx5+l5VfOFIFrl6a5JQTcymzv1tBBTQb91M97aNjcNo5F9HJioj3H1uOFAtBF9DAYZ+KJm5voMeokweS41aMawqMi3FOjSgF50ygoMAHWjqujZ5aGlvKtE83GgT2V7jA0eNABGaaHEUVhpbOYyo9CUOynvJKAbo6TRaEd3jLL1ZadTeTw4P0bpvHGij5g9xg4qlf7hdddd/8ZH+mCUG9LXSwSaJKAZTV26lGWsIDR3aZ8pC1gT9BGzx9gg5YMYpWhCmRmlY4ySQVpEVGVdA15uSLs5FTQzONvmawEPaMQDvsCaQcI4jRL6iNlj7JCempRPn63bd6PIFFrfrRuRJgXMgfFlVHimvuNodOxG03Ghj5g9xgapHWQaJemr/peFwlPo9NlETUgEmgQwRkbGkcQoRXYGOxod0z8OH+NEHzF79JhA9BGzR48JRG+YPXpMIHrD7NFjAtEbZo8eE4jeMHv0mED0htmjxwSiN8wePSYQvWH26DGB6A2zR48JRG+YPXpMIHrD7NFjAtEbZo8eE4jeMHv0mED0htmjxwSiN8wePSYQvWH26DFxGAz+D8UbUF3VdsU2AAAAAElFTkSuQmCC;" vertex="1" parent="1">
          <mxGeometry x="510" y="197.5" width="230" height="85" as="geometry" />
        </mxCell>
        <mxCell id="bZkYJHnAxm7wtyXOv3yM-6" value="" style="shape=image;verticalLabelPosition=bottom;labelBackgroundColor=default;verticalAlign=top;aspect=fixed;imageAspect=0;image=data:image/png,iVBORw0KGgoAAAANSUhEUgAAAOoAAABZCAYAAAAwyriVAAAAAXNSR0IArs4c6QAAAARnQU1BAACxjwv8YQUAAAAJcEhZcwAADsMAAA7DAcdvqGQAACdlSURBVHhe7d0J2HZT9T/wuySV0KQ5JVMoIlEZoiRFiCJKKVJEaUKmBpKEMlXKJTSTJJTKkEbKWBKpJFNp0jx3//Zne753+7n/z/u8z/u+d5fn/jvf6zrXOWefffZea+211t577TPcrV/Q69Chw6zG3Sf2HTp0mMXoDLVDhzFAZ6gdOowBOkPt0GEM0Blqhw5jgM5QO3QYA3SG2qHDGKAz1A4dxgCdoXboMAboDLVDhzFAZ6gdOowBOkPt0GEM0Blqhw5jgM5QO3QYA3SGOkL885//nDjq9f7zn//U/d///ve6/9e//lX3C4J///vfdZ8yW6g714M//vGPdT9Vfnn/9re/TZz9F3nr8U9/+tOgvJavUUC5w/L4xz/+Uffq+stf/lKPW4TWyBXCH+T6b3/727oH9ciP/1HI/85E9z7qCEExFlpooXpMrM7vcY97VIW6733v27vb3e5Wry0I/vznP/cWXXTRqniU+z73uU9VxEUWWaQquPoo573uda+ax7m9utEmL9pcDxhH8rqO1haMdjhtfoDee97znhNn/5XR3e9+91q/uhdbbLF6TbrrDDB1O0Y3GeAbT63MW0iHqa6NI7oedYSgFJQaYhiMgKKNyh8yUgrLqBjml7/85YHyU17HbV2OGQJ60MKgKXvyMGrX733ve/cWXnjhQVmuR9ldG0Wv2hophDabazHSCy64oHf55ZdXHlsHEeeCzjg9Mv7lL39Zj//617/WfXrRFulxxxWdoY4QFI/CxVj1EowpSrWg+PWvf133UcIrrrii98IXvrB33XXX1fMgvYg95Y0xtMNG6crJtRguIwCKHcVXTnvvgkA56oqDsJETSP/973/fO/roo3tf+tKX6rleWA+KHsNaNJFxS89DHvKQ6lTiCJSZHjf5GP04ozPUEYJiUJb0AhRrt912673mNa8ZKP2C4EEPelDt2ZZYYomBU/jDH/4wUEZKbYtjsE8vJL/eNHCcc0rOucTBgF7UvelVYwQLitDHmIL01urCG2OVFkMzikDLAx7wgN4555zT23HHHXtXX331gF/gTGx4+NWvfjUwfnu853xc0RnqCBGl+fnPf9475JBDessvv3zvmc98Zm+XXXapyjYKxOD1MuqjwJQ7PYpNr5hel0G4FoMb7iXl09sYdnIwjCPDROnyxLhGAfUCw4m8hp2AulxDRxwNuhnheuut11t33XV7G2+8ce+www4b8MmwxQI4nyWXXLLSftppp/U22mij3hOf+MTeEUccUfONKxZ6W8HEcYcFRJTwpJNO6h144IG9yy67rPf0pz+999CHPrT3u9/9rvZSCwJlGO7ecMMNvV/84he9888/v25rr71277bbbut9//vfr734ox71qGoI6bkofHpPCp3hrZ6LkaDb/e5l9DEi+WLQyhmFsSpLmaFDmZdccknv4osvrj0h/sxRDV1dx/MPfvCDKsPFF1+8pjO8DTfcsA77pa+00kpVtnhMz4nexzzmMb1LL720d9555/U22WST3lprrVWvjSXKsKDDCFEUrl+Uv3/44Yf3i7L3izFMXFlwKKsoq8lkvyhxvxhVPS6KX/e2Lbfcsl/mxf3Sg07cdcd9QemB6h5tpVeux7feemt/11137b/sZS/rl3lwTcv9xaDqflQohjdxdAduv/32/qte9ap+6TnrRnb4CG82PBenN6CpGGM9Rrfr5557br/0uP3iBOqGZvzBTjvtVPMUx1bPxxXd8syIseaaa1Zvbi51v/vdr6al9yBqPZVerO2dzDP1Fno4PRoYqup59BD2oGdUhvyGhF/72td6m2++ee+HP/xh78EPfnCtV17lq8/5MNoeFQwd5dfjiJ5+/etfr71WSwsIiqEdT+2QFJ1oSrAGvY6l4dE5OkJLemdIHmWrmwz0jE9+8pPrlOHQQw+tPb268AfqRq8yDIflQ5deuS3b1ABt2gO/iSIDmtQt3TEaIuPZim6OOkL89Kc/7d1yyy11aBZFZhgUwVCVQlKg0ovUa1mcp6A/+9nPJhmGYaB7GGUUXpk2+RgMpaaYD3/4w6tx2aRFkYFCUlj321NOCu4YnKvDsFGwShmAJmDI5obS43jcc+ONN9ZjvIhGoxXUB2i+6aab6rwRLfgmC0Zl6G6vXoan7KWXXrr3wAc+sPK9yiqr1Eiu/EsttVQNImVuzdiUDWTxjGc8o9LCWTFU5YGYgLwMfZlllhkcK1N++dAtnZGiZzajM9QRQm/EUCkPZQaKQRn0UBSOMn784x+v15ybgx1//PF1nmWOSbGlnXHGGb2HPexhNf+ZZ55ZlYmCUnqGCAxfPYyD0kpvFXkYjBUYcwxVeYxSvTfffHNNY5joBgac8hgt40KLeTBed9555+oo8MwQkpfBCfhsvfXW1UgZDlof//jH17njcsstVx0OuhMQgkc/+tGVLxt+0IUnNDOm8Id+eyMK9Z5++un1Wspy/cILL6yyfP7zn1/v1Stvu+22vcc+9rFV3qLH4TMGPlvRGeoI4eEDRrPGGmtU7+44RiUS+YEPfKAaBQON0dz//vfvff7zn689xo9//OMafZVW5m31HgahPAZF6SDDNIpKsfVcc4I88lNiRhcDDV0UVR4GkWWlRH/TO7qPATA09DMiYKAf+chH6lD1mmuuqTSqRx1GC4JAAkOMlKG4T5AN3vjGN9a9dOXbkwG5pYfPBuSl/EB+YPhw6qmnVnrRpxw8x2il4ZcxPuc5z6k9uADc4YcfXnnSs8ozq1GY6zAiFKOpgZ2iEDWYUZSrpmd/0UUX9Ysi91/3utfV60Up+2Vu1i/K2C/G0T/55JP7RUn7v/nNb/plKFyDIG9729vqvUXJ6x6KIg4CQQkUSVNeMZLB5ryFNOWXoWfdFyOtwRz1bbXVVv0y3+tff/31/WK0tT51yBvI38K9sOmmm/ZLb9UvQ/96DsUQ+2U0UINCoLzSU/ePOOKIfulRa1AL7+B4TsBfe53cAL9BcWZVVuSMx2CjjTbqF6Os9ZQevl8cYf8pT3lK/z3veU+93pY7LKvZhs5QR4jitWvkElqFiUJ/73vfq9df+cpXDq6//e1v76+66qrVwI866qiaBp/85Cf7pWftl+HwREq/GhBQKs5g2HDAtakM1sbwvvGNb/Qf8YhH1LLLcLJfevdJEdbHPe5xNb30MP0yZ61bGQlUI4PSU06K3KJhk002qY7m0ksvrWmMyf1PetKTapll/ljT4ZGPfGT/TW9608DglAeMJnICht3yF0cVB9U6wTXXXLPWI2IdxwUc4GqrrVbLPvvssyuv2oDsGC6knLa9ZiO6oe8IYfhUlKIO/YpsJ1LvmBMWhajDsaJ8dWhWFLXuv/nNb/YsZRsOG4K5/9Zbb+2V3rUOfzO0A0NS10SUDQmVqTybYzBktRkm5hgtNmmG0ttss01vjz326O233369vfbaqz6Qsfrqq/eKEfVe8pKX1CeppL/2ta/t7bTTTr2VV1558MCGYbmgkjk3Hgx1DX3V7xp84hOf6G2xxRa97bbbrs6zi5Oo6R5AMNTcZ599Kl14dU9xHjWCbahsbgtkRl6iwZChuvta4MuwHdCiDQydlUle6BTRtu2555694oiq7ATOQB3yz3oURjuMCE94whOqZ+f1eW1Ir6BHuO2222rvtcEGG9S0448/vr/ZZpvVXuChD31of7fddqv5v/CFL9Sy4uX1ZnqxMgeuw1PDuZSfngnSg04H+fWuw1DuWmutNXF2B1JHi3bIGRgVGE1cfvnl/RtvvLG/1FJL9a+66qrKH3kYchpe63VPOeWUwcjggx/8YO1hN954435xCv3ilGpP/O1vf7ten6q30ztC+HZNucUBVDnmHmWr+8ILL6x5TDnIFMK/9OSf7RhpjxqvXhql7oHXTC8DehEbFIWuexgLrzYXWJbh0X/0ox9Vr62n4+WLnGsPwYsX5a98W8oRWNFzuS6/+8hGb6fXSfBEsMhTOAI3ntzRQylXj6aHCuRvAy5TAU1tr6QM9SsvvW+WjdDUQvuK0gI+AsEZNCnLSMCjk3ph96NHeSLdgk9bbrnloIe98sore8V4eieeeGLvyCOP7BUHVfXgU5/6VL0uH3qS37Ge1Tm+ydEohMxEkck+oxYjFXkF4txHfqLqem18yoO26J3z2YyRGmqUx5ADME9YGowAgdAorSGJ4RQjdkzI4w5LFZY2vvWtb9VzykQenBQlp9yGeqK3Bx10UO/FL35x72lPe1pdpqB8ZLTrrrvWJYetttqqygqsMRq2UWbPrjIWeclW2WQYZZ4bGBVEMZVBcdEXYzUMB2WnXPnRE4eLhpRhOKnNzzrrrPrWy1e+8pVKE4NV3rnnntsrc+76uCO609alJ64GbM0U6INj+qBs8nM/uhgj2QIDMySWn6Gi6Q1veMOgo3CfzqLMxeuwWBtYogGODn7yk5/UfWTfOrxZiSL8kaIIuO4NmxKAABP9wNAnw6oipEGgYNwhYipIs++++w54L8pT9yBt/fXXr0Oy5z73ufURuKDM82q64Md1111X0xI4aYMs2267bc1XFHciZfLwd6YoPclgSFmMqr/eeuvVutuy0Kt9oG3XpIWGCy64oNJkSH7cccfV8jyyJ3Aj3bb//vvXvOrN0BfCo6FxMfI6RC3z1ZpGnoEyg1ZfdtxxxxpdNq1IHnQvueSSgykGXHvttZW+F7zgBf3S21Ze0QetLGcrRmqoMT5oFTXKmjlEBNpGD9t7xxmWKsyZIApJFniHV7/61f3SI/SPOeaYek4WjIACmaeeeeaZNb1VxshS3tIL18hxDAcYXHs+J7TKTjljqGhTLueRaCi0+YPWscZoKXwZ1vaf/exnT3LIl1xySZXFdtttV8+HeQpf9MC11Vdfvf+ud71rkhPB17CeMGrAA4Nbe+216znIX0Y0dbno5S9/+cAIlY8/sjMXLj1qraN1GrMZIzXUKEtrdG1ju17mCNX72SJEXjxeepyBH0p2v/vdrz5oDsPKTqmtkUKUBP/k4cFzaGWRY7KjWDvssEN/scUWG8h6pkYKbe8eKF96mRf2P/axj01bVtoreZzH+AS6lBOe6AC+BJikRSda3QDLM0YWZQpQZeYe5cSxQeqNYYO0D33oQ7W3tvwjP1lHTq3DCb14tdarzrasOIXZjJEa6rCxRRhXX311v8whajTQmiHh8pz/v6LM0SqPxx57bD2fqmeiPJFXhn8BowVKTSFbA9tmm23qmmsr6+mMazooN0Ndw+sYmbJDny30xyhzD7THw0YYunJfjK9dw7zllltqNNbaapD62p60NSZD4s985jM10su5ZGqQPK28WycRWnPuvqS1fMxGjNRQW2EShobRWF6fMgcyZJG24YYb1leTGHKEOg5ebW6IIlJuyrj00kvXhwF4cUoZg8Rz+L7pppvqHoYNNkheymSIusgii0wyCrKbiaLJhzZ5Y4ApO0CnNlO+PNDmyf0tnMcpt8NWiJEOOxMGJI183vKWt1SHxDDVdfTRR0/k+q9MQR5zXz3vyiuv3D/11FMn9YxT0RUMG+vNN99c99D2vrMVI33NTVGidEXYg9D+F7/4xV6ZG9QHpL2dXxpo0pfmRAGLZxu8mTHuiDjJwVsannUtytp75StfWXktClMjptkH8ojIkomo5rAcRSuLEfT233//+nCABX3R0xVWWGGwZOG+6VCMsEZQp8qba6GjBTpERd3T0t3SF0QH1FEMsV7PPWlv6co76qij6kMXlmxEjW1XXXVVzXPKKafUfNLQhEf0nX322b0yfehtv/329QGN1Cev+xzbWj6GeSrGXcsthl95QqNjqxGzFf+T91EJQuicwNZZZ536aRLrVzHQFhREo2oIKB6vHiOL8JMeBZ4OaTR5NSoo37nG+B+wOlKgvVX+KDTFtDxjycHyhaeTKJp12eOOO64eM4Rx4C88lV6svm/qjSP00wG848ObON5s8fUGaYyIIx8H/iA8jrIDGqmhlqFbJTCG5rUpL+5SPL0Ao/G2B4MrQ5raKFFKvUW8XB5X44lTFm85N8Rja3R1xcgh12Y74u0hDQ5JT09Fhniczb3AVLDu6dU9Sq19gR7gySZdu41DWw0D/WzA2myMdlT4n/SoZa5RXyEyXDNU8fIv768BPInjOVDQe6o+xhpQQC9S3zbxdn96RUo6HTgBT79Q4vTMgTLSy85moBv9aKXI6I7hAkWIIwOOLUPTNn22QjtS4rmNjvApbx6OaJ3WbEVLowcy6K420ZZGQxzUfIOhjgpFaWowIfA2SPGM/Y9//OMTKXegMDQpcFKUsQYREjgoCto/5JBD+mWYx4nUdUcPEhTDm3b77ne/O6n+0tCDbRxQHNFg39LsPHyRHSTSmXvGAdoV/WkTx2X+OODJdXowTjwNow1uwah0b6Q9aiGqDlnseUxvZXh0zGcyjNX1nPGkGRroEfQaw/NXL1HrVXkk9yBzbsMhb/Cbw/Fkgd4G1K2e2QzD/zy+Ry74aIdQZJDzBFick4tRzFQxgNmEjGjwYYsuGDm4Zhu+ps2c66lme/uh2VYcTd0niMUejJQWZJryPxn6Fg9ZH8QWSLr++uvr/Ko1HgKXZ5hwRqXRjPEXBFginCiGuhzP9qGTxkUjem0tGCS+so/Tk0+a/Wyf12mTFnQCDxnu2w8jjijOfzYDjXmWG3Qaxx57bH1ue0ExUkO19MIgGOC1117be+pTn1rfc/SQNoHH0wBvQ9k0AsPVSLyPPWW1l19Zjhnw8LLBMJQTh8Do27mva7O9odHH4PDd0q6JbK3splp6cN9sxrD80RvjzbU5ORs6EMc7WzHMX+s86eOs6lEJ1JDMy82+T+MNiQMOOKCmg2sQo1V9ej/GyNAY1fvf//76ArI0hivf3BTRN4m8NpXhhvzpRVPfuAC/cTacXNJyjD9KYLgs4DLsmGYrtC0e0hbhB9o2lp5rbZ7ZjjY6j8dRtcvIDZUX0RjHHHNM7+CDD+6dcMIJ9RWjVsnmhBi5XsJyjtfFRMsY8UyMzCtiviiQKCk6KHPqjfDM/1rvFmFOJYo2bSoaZsLXvALdgG/RT/t5aew2MhxehxVHHYw95TpXT+vQ8GZzHjngVTuRqzT3WGrLdCX3tHCPrS2jxZzS5wf4QB9nzWjoUzqHuaHVi9bA0oHQ7Tj+6Gr2rpEFxxlZpB3INDKYbxQhjQyF6Imjfr8YJ+nXh7LbCO90KEKeOLojWlaENXF2B6RNt4mEFqFM5J4ccUvZKbM4g7oPSiPNNdroevLkuE1bUJBfW177Jgr65oY24pjjomSDMh0Po31EL88Yt7LImypp2zwPHKSetu7pEFrSZjkfBVraPHjfYibyA7T4GFpkVQxw0r2RB8hDLvK0oO+tnrV6Pb8Y6ViwMFk9DHznO9+pnjgfoy6NUtOnA2/Ik9mU1XpC5Spvuq1daHZ/68FSf/Y8Z7xvkUNds7XPNhVar5jjNm1BwVsrKzLkoYOZ9ArtOmpGNkXJ6mN5yk0PoacJ1MXz23yelHxs8rs/kWS0SG/XdN2bwAmQ+VSyk+YaKLeVs21U8mtHHZEdHiA94XTQc6LF6gHePJxho796SrS2ozUBU+VmHup+aGMp6HA9dMw3SuUjBS/ja3SK9nW4oDA+cTRvKMoxqWecCYpS1Pra+5zzfK33c93X6VZZZZX6z5bUlU057RYMn8Pw+YLAmmnWSWGmvVXu8eC63nGNNdao7VCUazCqyUgCf/DpT3+6v8IKK/QPPPDAwdcCw0t6qMgs94BX8rbffvv6idS84D0nuSW9Ra6NGq2sjEjaEcNMoPf0ArsXR8jOPvxnnzL33nvv/rLLLtv/6Ec/OnjTp61fOwbzq//BSA01DethheKZ6qtIIbA1kDmBkROUYYOGdU+GEDOB/Gn8YeUoHm2S4AxhfDPXQxVecG6HmcGwotmUk204fUExPEWI7KSrYybI0Iwcr7jiiqpsu+++e6UvsmzzhG4fN/OVicgh6ZFnaHGv1xY9gHLAAQf8P1MIcI/7bbkf2uNhTHdtXhBDGaZrWLZTgTwALeeff359+dybPVPpbvJyWMstt1x/8803H8goMsz5vOjwnDBSQw1h3vT38nQaG9rj6ZBGbuF8JsxOpczulR5F0IAMNl+p88LzTDGsTM6H00YBvaEv8Xl/12dO5gXagBLh+fTTT688nnHGGRNX/8sDeUap7c3pfA3QR6vN0aKc8keGoLdZfvnl+/vtt189B/dGcafDnOQ1p/T5gXIY2TLLLFMdlZ5uXstm1PmCotcxg+hg9DPGbyTio+I+rA7t/HgURgojH/r6YLShpPcmCSm97Ex6BHmyDQs3TmBekfIgPUl6mpNOOmmgkMrXAMOG3WLYs8rX9uKjhPdU0eiD2WC0MTeQdZtPj6cM32CiVHhs+Q0iH20n/6GHHjqpt02ZeooVV1yxti+QZ1tOa9AtpKUssnKMDpvjUckvRuGbS/jIcBRmoj/RVbIy5C1zy0oj+jPcRW94kT/y9InXRRddtH/aaafVc2jzzsSRTYeRGuqee+5Zva3PamToEQGFoekQpsCxMloBa9DpNnCfe+zb9ED6FltsUX+DoAFcD616Fo3knHKmkQI9MWVwj2vya0D5p1LQeYVyQ5NPtpg+fPWrX63XZqJoQZTiWc96Vv0OUxTQHq1emk5vgJ/Q7touu+xSh3K+vJC0wPecFl544aqMaU/3K9cowL41cHAsLTSoi2zVb3M8Ctm1OOecc6qh+uwPkN1M68Avnty/7rrr1rTIE4+cFZ4yGoH0oL7dJC7QyjZYUB5HGvX1JNLHPvax+ieyrEeJeBXFmxTBnBMSPQPHymijdSJy023gvkTi2vRApM7nK305vTTKpDyu7b333jVq5+v1aC69Rr3mAQ5R5ZNPPrnmL0Zbn0f2Gp/8ZSjN6dWI9VSQ7npR8HpelGfSvihsLVf0WhqZJZoNkYMyiqLU45RVFKnuQT15OsvbS9aVRYyle6PDl/J9Axf/paet13K/Ol/xilfUv7T5ti6atEFRslqnv855O8kHAMKn+13zTV7XvMhO9u4Bxz4bmjem8OP95H333bc+/12cyaB8KEpe91CMYVBPeC0GX/eRW64H8olUkwFZ4Y3s1Bua8AXKUG/Kxj9+fV8Z1l9//bqX31tgosHk6dOkqde1RIK9zO4/rb4frKy0mWO0LAhGaqga0IeX29d5EJhtNoByooVSxXnEGKR5LlMjewRSI1iy0KAevnAfA5Xu4flVV1217vG76aab1uuWCChEFAmcS3c9jUeBgaInPUoqr3P3WXJxncOgpIwZ3RQl9FMuSo2uLFHI7+Vsv5tQh3T722+/vbfBBhv0Pve5z1WDBXVIt1922WVreflQNaBDXdI8y8rA2qUg509/+tPrd3TdQ/EjUy+5l16optnwot7VVlutnlNuvIYX5eIFrwyglRues1yEFwi/wBHJxwGThXaJbABtysq9qTdtgWbt5mEb2GyzzerDHHmhhF7svvvu9Uk77U4u7lGOtmPI4Pl2xhn52Uce84uRGiri9S4IwwRiCcEWou9sXHzxxZWufMIE0lD2lE1j2TSMvBpeT+pcrxswWr0PZfPObYBXZbuPx7ZRnLaxcg00sropqfVc5xTIOYNTHqWjpBRNnRRHeoybUqMP3QzUJ3DAY5ygF/N3bj2lf8AYHVBg/AFlzF45l1122cAIIh+flslPgQFP2hn88zRGkZEKQ3zf+95X99IoNIcAyrfGvsMOO9TrKccxXugR3vDrXoj8pMcRkk/k6CF4iBNRprzRPffLay8d/S3Uo93yU2b8K8tfDfwHyO8x9abaIu3a6pD3ocHfzcMPqD80zDeKIEaKQnwdmxeBT6TcgaIQE0d3Ll7+8pfXeVb+bwKhrTR+/ZRnEXr9GFvgS3e+BetjZcLwYL5iDbYodV23xHNR0kllTQXzHflKQ9Zz816/PCyNX5eKiqHUP6gVRa3zJPPFolj1nzXo8mHplVZaadLHuTJHKopX9+DJMMsL+PSrQ1/6s96nbm3UtgdeQDr4o5t/wgTS/VOmKGX9miSgP/w6xu/znve8SrP8aCEXfJgrlyHjQCbmv8XpDH5/2MKnQ8MPtHSGPlCW+kWq89tF68XqIzPnNjETcpBu87nVzJdBuyVQlLp8uFsbnHXWWfX3kZ4HEO2eCmgKXwKAxSCrHIojqGmjwkgNNco3jJaZOxPoYxSE6dHGpAXFo9Z9GRnUdcJcEwH87Gc/WxXCMeCHMfhBUqtA7nnve99blUMdKYNBtgoCUehTTjmlGj2HIFDjgZGDDjqofm3wzW9+c62b0vj27nnnndf/8Ic/XOsPvZxijLT0MFVJKBpFFX1n4I997GPr9UDdaIpyto5VQMRCPtopsrpEnzk4AcPwlHuUYdtrr71qnddcc01N93V8XwzcZ599qpFETvi1nAEis6Lw1no5kzKErk7pRS96UTVEPKqvNaZWn8hMkKuMIOpnWsnPp0fR4WGOyKsM9eu6vnx4ah8owUcMi0NSv82/VMmOAwCyDdQfGgBdlrXUy8m3hhp5LQhG3qO2iFBHQegogB5fqifM/OUrypM9UPIyjKvHb33rW/s77bRT7QlbQ/XN3nXWWac2CIVXFiXxlA8DW3zxxWuEMJ+ipHQgH8WIkUHkExpct34qYnvllVdWhWCIrWEE7XGu+3saZ+R3D+AvcXjWU1E2DgM/4P4cg7osv/gCvfSUKQrNUFMmUHhIHj2knpLTYVhkwRClM1QQifV/1iwZwetf//q+f6mSA3mVIWaVPwNP2RDDSL3QOhsyIkOy05P6dQW0ZbRQnntTHn6ztOPXHGCFwHkiyCAf/lpDdUzu8vpDXxxn2ntBMdI5aiGqznlKuYO9+UDmFnc2zBP80AjMQ9Ab2tALpeFrZNQ8TfDEq3beygGBFj8XMo/0BT0RYmWYO5or+TuZL1oINijH/Ma8XWAk8yb1meOhpTR4ndOVRq5zM/OcotiVlhVXXLHSaL5pbme+5D71uTcQ7HAvFOWo+0RzleFa6Z3qF/3MT9GR+SwoL3PbIIGl0AoCQNL8WS5Ive5FM7nhtRhg/fW/ubu6xAOKMdSP3R1yyCG9rbfeuv74qhhvnTv7Jys5FyOr9ZWhY5WNqHXqV2baKGnqJ/vII3Nq/IjcllFEzSO/+afylattyIp+ujfzTPeREQiMwlprrVXnvuICgD/5vFqoXZSXOrQVmZmvhxblt+01vxipBSEyhDnOOQGnUe9sCPqgi0GkocCxRtAAGsl1n+IUjBHJ1jiiwhrGLxFFhy1xUBS8+XibJR3vw2okjSgKqa7koSg2UJ7gi70NHWgQVWWwoqXSlUPJA3nQEAj+SANGQQlFqN3js5vKXXvttSs/ZUheaWMwNqBgaKKs2in1yRcFpuRoUT4nlfrRCclnGQYs1VgCK6OXWn4ipH6vyPmRn3ulaQ8fF3CvcvBz0UUX1XL8KpEjA0aNJgZLpqE1TkJZoFx5XHOvPaN0P1pamYdu/LvffZytgGICQ5ZotKPvUsvHMZIlKFcZ6sg1tFnCGTlKI99lYIhjHiEoZEjTzjlaGO4SjaGbIU5w2GGH1XQL4X4yBEVJBnlKA9b9O97xjjoEFKTJkHcmQF9gaKguPwQ2rCqKNHFlzkge9JljqbsoXx0Omk8Xheq/+93vrkMz87lAnsBctChf/+CDD55IuQPFOOvjhYJZ6Axf6nQNDOeLY6jBL89PJ4+gUjGSyk8eyWuH/hkmgmG54bX5YYJcUBzdxNGcIY/t4osvrnUJWuW+to45gRwE0YqDG8jSXNZUSJDvne98Z9UJsQcyDX+Rn+vq1XaQOpUl/4LgLmWoQOlFCgk8kBbFYWwetKbYZRg7KaJKyfye4+STT54k+GEjEkTRYOZbDHleGklZUTYKwqBmoqQBo/F0kSBSa4Civ57BpoR59hfPynYP/pyLigum5cFyc8BAcIbBDUdAGRfjtamDjFqaydcc1JxTHWTcOqUotDQBKXlvuOGGmubavMhPXR7nMw8WpFLfcPtMh5e+9KUDJxW6xCPwRSfauSpEbxitub0/0qUDUC96RoG7XI8KFE7PIIpKIVuliYKVudMgSNGi/WenhpRfY6XBeGDLIRQ6SyjJMxOkdwKPwqWXbhV/TohSMNDkt6dEw7xMNZqQJugj0twaaBQdbaLZXglMkAxSV+TYyrNdamkNDo3hVflkKfJbpheTAkTgWut05oSU737R3SA930wQ4wTyTJkt7S1/RlPyiXSXoXn9nWZLOyc2CtzletQojmEcpXBO8JSGwkRpIA3cKvWcGqxtnCOPPLL2qKKA8wqNPpWDmImyoa2lrzXu8GQ4CDE+YATOveqmJ2KE7ZDfdCHg5ES0TQNatD+7Ii/ybPmYyllAHJH1SmvVbV2Gz61DmBtaJ9diJkYOrXOKvIYdrDpCc/ihQ1YEypx6oCu5L22woD3rXc5Q02gEZ93OmheDioHkOgETNmOU7joj0FAasVWKGId0CmntcNFFF61KF4NojWZOiOHLm/w88lQKPiegGQ/2FC+0tfTmOOUaPRjyWtg31I6SogH9Le2OrR2b559wwgm1rBjXVMbYOjNQHifQGoAXDzhNDk793mo68cQT61pu0PbM00F9aNRerXNrHdN0iPyGEeNsHYe5txjCzjvvXGWXN52g5Q9aGc4P7nKGChE6eDFY77fHHntMpNyBKGvQCrpVRo2axXNDQg9KeArHIrnAil5Co82koYbrbDG/DR0jUjajb3sNcvA+rqei/P4wQ3V5hw0On5Q/Cu+v3r7uIPii3NYo1BEZozvDP/e29QeeJFpooYXqpi28h2u//vrrT+SYGdDcjihazER+rVNBq9EHWcToIpMEuTxswSGLB0Bbt/udZ1tQ/E8+wD1bUZRtsJ5ZlG4Qni/KXJcrrDsK3xfB1lB+adwaei9C59Dq3j2lwQZLEy2UI7/7lOGZUOuO1tWUNxOoB202ZVlGgNAyN+CxKFel07KQ8rL0Yw/FqCo96rAc5S0gLx8sscQSde3WmmtkIK96LY0AOqRZRgLLGaussko9Vn7pcWpZ0Mq4GGu9bonHQ/pZ7gH151lp8rLUBWhGkzote0wl8xbaJ3nSBjZymAla2ltEb8KPMvGCbss+HsaPfFqeIe0Y2c8v7lKGGpRhVF3bo9BRfooQYbZGIY/Gb42EoUaR3QeUl5ErQ5oyKE4MTTk5nhPkly/ORBnqUGZraHNCaILwhvYoWukZqmK1tJReZKBkQasSw3XiHX9oVZ5ypam3NZQyJK7ygLaO0BB+GC3DlMd5HKHr+JmTAUwHTqE1TrQoJ201N0Re+HHMmbU6ER5aviKX7NMW2c8L/VPhLmmoHTqMG2bHs30dOnSYFp2hdugwBugMtUOHMUBnqB06jAE6Q+3QYQzQGWqHDmOAzlA7dBgDdIbaocMYoDPUDh3GAJ2hdugwBugMtUOHMUBnqB06jAE6Q+3QYQzQGWqHDmOAzlA7dBgDdIbaocMYoDPUDh1mPXq9/wPFrI5/f+6x6QAAAABJRU5ErkJggg==;" vertex="1" parent="1">
          <mxGeometry x="97" y="440" width="234" height="89" as="geometry" />
        </mxCell>
        <mxCell id="bZkYJHnAxm7wtyXOv3yM-7" value="" style="sketch=0;outlineConnect=0;fontColor=#232F3E;gradientColor=none;fillColor=#232F3D;strokeColor=none;dashed=0;verticalLabelPosition=bottom;verticalAlign=top;align=center;html=1;fontSize=12;fontStyle=0;aspect=fixed;pointerEvents=1;shape=mxgraph.aws4.question;" vertex="1" parent="1">
          <mxGeometry x="414" y="451" width="41" height="78" as="geometry" />
        </mxCell>
      </root>
    </mxGraphModel>
  </diagram>
</mxfile>
